<svg width="111" height="108" viewBox="0 0 111 108" fill="none" xmlns="http://www.w3.org/2000/svg">
<g id="adobe-premiere_pro logo" clip-path="url(#clip0_80_143)">
<path id="Vector" d="M19.6563 8.70497e-06H91.3438C93.9257 -0.00241977 96.4828 0.50329 98.8688 1.48819C101.255 2.4731 103.423 3.91787 105.248 5.73981C107.074 7.56175 108.522 9.72509 109.509 12.106C110.496 14.487 111.002 17.0388 111 19.6154V88.3846C111.002 90.9612 110.496 93.513 109.509 95.894C108.522 98.2749 107.074 100.438 105.248 102.26C103.423 104.082 101.255 105.527 98.8688 106.512C96.4828 107.497 93.9257 108.002 91.3438 108H19.6563C17.0743 108.002 14.5172 107.497 12.1313 106.512C9.74535 105.527 7.5775 104.082 5.75176 102.26C3.92603 100.438 2.47825 98.2749 1.4913 95.894C0.504338 93.513 -0.00242481 90.9612 8.7231e-06 88.3846V19.6154C-0.00242481 17.0388 0.504338 14.487 1.4913 12.106C2.47825 9.72509 3.92603 7.56175 5.75176 5.73981C7.5775 3.91787 9.74535 2.4731 12.1313 1.48819C14.5172 0.50329 17.0743 -0.00241977 19.6563 8.70497e-06Z" fill="#00005B"/>
<path id="Vector_2" d="M26.3623 75.7385V28.2462C26.3623 27.9231 26.5011 27.7385 26.8248 27.7385C27.6111 27.7385 28.3511 27.7385 29.4148 27.6923C30.4786 27.6462 31.6811 27.6462 32.9298 27.6C34.1786 27.5539 35.5198 27.5539 36.9536 27.5077C38.3873 27.4615 39.7748 27.4615 41.1623 27.4615C44.9548 27.4615 48.0998 27.9231 50.6898 28.8923C53.0115 29.6791 55.1286 30.9719 56.8873 32.6769C58.3776 34.169 59.5291 35.9634 60.2636 37.9385C60.9637 39.8619 61.3236 41.8921 61.3273 43.9385C61.3273 47.9077 60.4023 51.1846 58.5523 53.7692C56.6937 56.3503 54.0988 58.3126 51.1061 59.4C47.9611 60.5539 44.4923 60.9692 40.6998 60.9692C39.5898 60.9692 38.8498 60.9692 38.3873 60.9231C37.9248 60.8769 37.2773 60.8769 36.3986 60.8769V75.6923C36.4089 75.7683 36.4038 75.8455 36.3837 75.9195C36.3635 75.9934 36.3287 76.0626 36.2812 76.1228C36.2338 76.1831 36.1747 76.2332 36.1074 76.2703C36.0402 76.3073 35.9662 76.3305 35.8898 76.3385H26.9173C26.5473 76.3385 26.3623 76.1539 26.3623 75.7385ZM36.4448 36.6462V52.1539C37.0923 52.2 37.6936 52.2462 38.2486 52.2462H40.6998C42.5053 52.2483 44.3 51.968 46.0186 51.4154C47.493 50.9827 48.8102 50.1331 49.8111 48.9692C50.7823 47.8154 51.2448 46.2462 51.2448 44.2154C51.2883 42.7731 50.9193 41.3483 50.1811 40.1077C49.4099 38.9094 48.2757 37.9877 46.9436 37.4769C45.2073 36.7983 43.3495 36.4841 41.4861 36.5539C40.2836 36.5539 39.2198 36.5539 38.3411 36.6C37.7089 36.5588 37.0742 36.5742 36.4448 36.6462ZM67.8023 39.3231H75.8961C76.1153 39.3284 76.3272 39.4026 76.5016 39.5352C76.676 39.6678 76.804 39.852 76.8673 40.0615C77.0084 40.4329 77.1017 40.8206 77.1448 41.2154C77.2373 41.6769 77.3298 42.1846 77.3761 42.6462C77.4223 43.1077 77.4686 43.7077 77.4686 44.3077C78.8573 42.6899 80.5354 41.3439 82.4173 40.3385C84.5672 39.1467 86.9881 38.5269 89.4473 38.5385C89.5234 38.5282 89.6008 38.5332 89.6749 38.5533C89.749 38.5735 89.8183 38.6082 89.8787 38.6556C89.9391 38.7029 89.9894 38.7619 90.0265 38.829C90.0636 38.8961 90.0868 38.9699 90.0948 39.0462V48.2308C90.0948 48.6 89.8636 48.7385 89.3548 48.7385C87.677 48.6837 85.999 48.8387 84.3598 49.2C83.0238 49.4752 81.7213 49.893 80.4748 50.4462C79.58 50.8488 78.7773 51.43 78.1161 52.1539V75.6923C78.1161 76.1539 77.9311 76.3385 77.5148 76.3385H68.4036C68.3182 76.3528 68.2309 76.3497 68.1468 76.3293C68.0628 76.309 67.9837 76.2718 67.9145 76.22C67.8453 76.1681 67.7874 76.1028 67.7442 76.028C67.7011 75.9532 67.6736 75.8704 67.6636 75.7846V50.0308C67.6636 48.9231 67.6636 47.7692 67.6173 46.5692C67.5711 45.3692 67.5711 44.1692 67.5248 42.9692C67.5248 41.9077 67.4323 40.8923 67.3398 39.8308C67.3275 39.7762 67.3262 39.7198 67.3358 39.6647C67.3455 39.6096 67.3659 39.557 67.396 39.5098C67.4261 39.4626 67.4652 39.4219 67.5111 39.3898C67.557 39.3578 67.6088 39.3351 67.6636 39.3231C67.6636 39.2769 67.7561 39.2769 67.8023 39.3231Z" fill="#9999FF"/>
</g>
<defs>
<clipPath id="clip0_80_143">
<rect width="111" height="108" fill="white"/>
</clipPath>
</defs>
</svg>
