<svg width="112" height="110" viewBox="0 0 112 110" fill="none" xmlns="http://www.w3.org/2000/svg">
<g id="adobe-lightroom logo" clip-path="url(#clip0_80_153)">
<path id="Vector" d="M19.8333 0.500009H92.1667C94.7719 0.497558 97.3521 1.00795 99.7595 2.00197C102.167 2.996 104.354 4.45414 106.196 6.29295C108.039 8.13176 109.499 10.3151 110.495 12.7181C111.491 15.1211 112.002 17.6965 112 20.297V89.703C112.002 92.3035 111.491 94.8789 110.495 97.2819C109.499 99.6849 108.039 101.868 106.196 103.707C104.354 105.546 102.167 107.004 99.7595 107.998C97.3521 108.992 94.7719 109.502 92.1667 109.5H19.8333C17.2281 109.502 14.6479 108.992 12.2406 107.998C9.83315 107.004 7.64577 105.546 5.80358 103.707C3.9614 101.868 2.50058 99.6849 1.50473 97.2819C0.508882 94.8789 -0.00244666 92.3035 8.80169e-06 89.703V20.297C-0.00244666 17.6965 0.508882 15.1211 1.50473 12.7181C2.50058 10.3151 3.9614 8.13176 5.80358 6.29295C7.64577 4.45414 9.83315 2.996 12.2406 2.00197C14.6479 1.00795 17.2281 0.497558 19.8333 0.500009Z" fill="#001E36"/>
<path id="Vector_2" d="M58.7995 77.5453H29.2129C28.6995 77.5453 28.4662 77.2658 28.4662 76.7068V29.1009C28.4558 29.0242 28.4609 28.9463 28.4812 28.8716C28.5016 28.797 28.5367 28.7272 28.5846 28.6664C28.6325 28.6055 28.6921 28.5549 28.7599 28.5175C28.8278 28.4802 28.9024 28.4568 28.9795 28.4487H38.3129C38.3712 28.4381 38.4312 28.4394 38.489 28.4526C38.5469 28.4658 38.6014 28.4906 38.6494 28.5254C38.6974 28.5602 38.7378 28.6044 38.7682 28.6553C38.7986 28.7062 38.8183 28.7627 38.8262 28.8214V68.0893H60.3862C60.8529 68.0893 60.9929 68.3222 60.8995 68.7415L59.5462 76.8466C59.5389 76.9536 59.5104 77.0581 59.4623 77.1541C59.4143 77.25 59.3476 77.3355 59.2662 77.4056C59.1293 77.5001 58.966 77.5491 58.7995 77.5453ZM66.2662 40.2804H74.4329C74.654 40.2857 74.8679 40.3606 75.0439 40.4945C75.2199 40.6283 75.349 40.8142 75.4129 41.0257C75.6058 41.3552 75.7326 41.7191 75.7862 42.097C75.8795 42.5628 75.9729 43.0752 76.0195 43.541C76.0662 44.0068 76.1129 44.6124 76.1129 45.218C77.5141 43.5851 79.2073 42.2267 81.1062 41.212C83.2382 40.0584 85.635 39.4803 88.0595 39.5351C88.1363 39.5247 88.2144 39.5298 88.2892 39.5501C88.364 39.5704 88.4339 39.6054 88.4948 39.6532C88.5558 39.701 88.6065 39.7605 88.6439 39.8283C88.6814 39.896 88.7048 39.9705 88.7129 40.0474V49.3171C88.7129 49.6898 88.4795 49.8295 87.9662 49.8295C84.9418 49.6487 81.9179 50.1917 79.1462 51.4133C78.2009 51.817 77.3446 52.4026 76.6262 53.1368V76.8932C76.6262 77.359 76.4395 77.5453 76.0195 77.5453H66.9195C66.8334 77.5598 66.7453 77.5567 66.6605 77.5361C66.5757 77.5155 66.4959 77.478 66.4261 77.4257C66.3562 77.3734 66.2978 77.3075 66.2542 77.232C66.2107 77.1564 66.183 77.0729 66.1729 76.9863V50.994C66.1729 49.8761 66.1729 48.7115 66.1262 47.5004C66.0795 46.2893 66.0795 45.0782 66.0329 43.8671C65.9862 42.8423 65.8929 41.8175 65.7529 40.7927C65.7405 40.7377 65.7391 40.6807 65.7488 40.6251C65.7586 40.5695 65.7792 40.5164 65.8096 40.4688C65.8399 40.4212 65.8794 40.3801 65.9257 40.3477C65.972 40.3154 66.0243 40.2925 66.0795 40.2804C66.1262 40.2338 66.1729 40.2338 66.2662 40.2804Z" fill="#31A8FF"/>
</g>
<defs>
<clipPath id="clip0_80_153">
<rect width="112" height="109" fill="white" transform="translate(0 0.5)"/>
</clipPath>
</defs>
</svg>
