<svg width="106" height="104" viewBox="0 0 106 104" fill="none" xmlns="http://www.w3.org/2000/svg">
<g id="after-effects-1 logo" clip-path="url(#clip0_80_139)">
<path id="Vector" d="M18.7709 0.0107422H87.2291C97.6082 0.0107422 106 8.4536 106 18.8958V85.1043C106 95.5466 97.6082 103.989 87.2291 103.989H18.7709C8.39181 103.989 0 95.5466 0 85.1043V18.8958C0 8.4536 8.39181 0.0107422 18.7709 0.0107422Z" fill="#00005B"/>
<g id="Group">
<path id="Vector_2" d="M42.5766 62.22H26.1466L22.7898 72.7066C22.7016 73.1063 22.348 73.3729 21.9507 73.3286H13.6475C13.1616 73.3286 13.0293 73.0619 13.1616 72.5287L27.3834 31.5148C27.5157 31.0703 27.6484 30.6706 27.8252 30.1374C28.002 29.2045 28.0902 28.2268 28.0902 27.2491C28.0461 27.0268 28.2225 26.8046 28.4434 26.7602H39.8825C40.1916 26.7602 40.4125 26.8933 40.4566 27.1155L56.5775 72.4396C56.7102 72.9284 56.5775 73.1507 56.1357 73.1507H46.9048C46.5957 73.195 46.2866 72.9728 46.198 72.6618L42.5762 61.9973V62.2196L42.5766 62.22ZM28.7084 53.3775H39.9266C39.6616 52.4445 39.3084 51.3333 38.9107 50.1781C38.513 48.9786 38.1157 47.6899 37.7184 46.3568C37.2766 44.9794 36.8793 43.6463 36.4375 42.2689C35.9957 40.8915 35.5984 39.6028 35.2452 38.3141C34.892 37.0698 34.5829 35.9146 34.2734 34.8481H34.1852C33.7875 36.7588 33.302 38.6694 32.6834 40.5805C32.0211 42.7134 31.3584 44.935 30.6516 47.1571C30.0775 49.4231 29.3707 51.5116 28.7084 53.3779V53.3775ZM82.5916 58.2208H68.5907C68.7675 59.5983 69.2089 60.9757 69.9598 62.1756C70.7548 63.3752 71.8589 64.3085 73.1839 64.8418C74.9507 65.5972 76.8939 65.9969 78.8371 65.9526C80.383 65.9082 81.9289 65.7747 83.4302 65.4637C84.7993 65.2858 86.1243 64.9305 87.3611 64.4416C87.582 64.2638 87.7143 64.3529 87.7143 64.797V71.5958C87.7143 71.7737 87.6702 71.9511 87.6261 72.129C87.5379 72.2625 87.4493 72.3513 87.3171 72.44C85.9039 73.062 84.4461 73.5064 82.9002 73.7731C80.8243 74.1728 78.7484 74.3506 76.6284 74.3063C73.2716 74.3063 70.4452 73.773 68.1484 72.751C65.9843 71.8176 64.0852 70.3515 62.5834 68.5295C61.1702 66.7968 60.1543 64.8413 59.5362 62.7084C58.918 60.6199 58.6084 58.4427 58.6084 56.221C58.6084 53.8215 58.9616 51.4664 59.7125 49.1556C60.4193 46.934 61.5234 44.8898 63.0248 43.0679C64.4825 41.2903 66.293 39.8685 68.3689 38.8465C70.4448 37.8244 72.918 37.469 75.7448 37.469C78.0857 37.4247 80.4266 37.8692 82.5907 38.8465C84.4016 39.6463 85.9916 40.8463 87.2284 42.4011C88.3766 43.9121 89.3043 45.6005 89.8784 47.4668C90.4525 49.2443 90.7175 51.0658 90.7175 52.8877C90.7175 53.9542 90.6734 54.8875 90.6293 55.7317C90.5411 56.5759 90.4966 57.1983 90.4525 57.598C90.4084 57.909 90.1434 58.1756 89.8343 58.1756C89.5693 58.1756 89.0834 58.22 88.3766 58.2643C87.6698 58.3531 86.8307 58.3979 85.8148 58.3979C84.7989 58.3979 83.7389 58.22 82.5907 58.22L82.5916 58.2208ZM68.5907 51.7334H77.9098C79.058 51.7334 79.8975 51.7334 80.4271 51.6891C80.7802 51.6447 81.1339 51.5555 81.443 51.3337V50.8892C81.443 50.3116 81.3548 49.7784 81.178 49.2452C80.383 46.7569 78.0421 45.0681 75.4361 45.1573C73.0071 45.0238 70.7102 46.3124 69.5621 48.5345C69.0321 49.5566 68.723 50.623 68.5902 51.7338L68.5907 51.7334Z" fill="#9999FF"/>
</g>
</g>
<defs>
<clipPath id="clip0_80_139">
<rect width="106" height="104" fill="white"/>
</clipPath>
</defs>
</svg>
