<svg width="103" height="104" viewBox="0 0 103 104" fill="none" xmlns="http://www.w3.org/2000/svg">
<g id="Figma logo" clip-path="url(#clip0_80_146)">
<g id="Group">
<path id="Vector" d="M34.334 103.5C43.8092 103.5 51.5 95.8112 51.5 86.334V69.168H34.334C24.8588 69.168 17.168 76.8568 17.168 86.334C17.168 95.8112 24.8588 103.5 34.334 103.5Z" fill="#0ACF83"/>
<path id="Vector_2" d="M17.166 52C17.166 42.5248 24.8548 34.834 34.332 34.834H51.5V69.168H34.334C24.8588 69.166 17.166 61.4752 17.166 52Z" fill="#A259FF"/>
<path id="Vector_3" d="M17.166 17.666C17.166 8.18879 24.8568 0.5 34.332 0.5H51.5V34.834H34.334C24.8588 34.834 17.166 27.1412 17.166 17.666Z" fill="#F24E1E"/>
<path id="Vector_4" d="M51.5 0.5H68.666C78.1412 0.5 85.832 8.18879 85.832 17.666C85.832 27.1432 78.1432 34.832 68.666 34.832H51.5V0.5Z" fill="#FF7262"/>
<path id="Vector_5" d="M80.8029 64.138C87.5066 57.4343 87.5066 46.5655 80.8029 39.8618C74.0992 33.1581 63.2304 33.1581 56.5267 39.8618C49.8231 46.5655 49.8231 57.4343 56.5267 64.138C63.2304 70.8416 74.0992 70.8416 80.8029 64.138Z" fill="#1ABCFE"/>
</g>
</g>
<defs>
<clipPath id="clip0_80_146">
<rect width="103" height="103" fill="white" transform="translate(0 0.5)"/>
</clipPath>
</defs>
</svg>
