<svg width="128" height="128" viewBox="0 0 128 128" fill="none" xmlns="http://www.w3.org/2000/svg">
<g id="photoshop logo">
<path id="&#60;Path&#62;" d="M64 121.5C95.7564 121.5 121.5 95.7564 121.5 64C121.5 32.2436 95.7564 6.5 64 6.5C32.2436 6.5 6.5 32.2436 6.5 64C6.5 95.7564 32.2436 121.5 64 121.5Z" fill="#18162F"/>
<path id="&#60;Path&#62;_2" d="M64 118.5C94.0995 118.5 118.5 94.0995 118.5 64C118.5 33.9005 94.0995 9.5 64 9.5C33.9005 9.5 9.5 33.9005 9.5 64C9.5 94.0995 33.9005 118.5 64 118.5Z" fill="#18162F"/>
<path id="Vector" d="M36.8555 37.18C40.8311 36.5369 44.8533 36.2259 48.8805 36.25C55.073 36.25 59.608 37.69 62.488 40.2825C65.153 42.5875 66.738 46.115 66.738 50.435C66.738 54.8275 65.443 58.2825 62.988 60.8025C59.6755 64.33 54.2755 66.13 48.1555 66.13C46.283 66.13 44.5555 66.0575 43.1155 65.6975V85.1375H36.8555V37.18ZM43.1205 60.58C44.488 60.94 46.2155 61.08 48.3055 61.08C55.8655 61.08 60.473 57.4075 60.473 50.7125C60.473 44.305 55.938 41.2125 49.0255 41.2125C46.2905 41.2125 44.2005 41.4275 43.1205 41.7125V60.575V60.58Z" fill="#57C9EC"/>
<path id="Vector_2" d="M72.4996 78.6525C74.3721 79.8775 77.6846 81.1725 80.8521 81.1725C85.4596 81.1725 87.6196 78.8675 87.6196 75.9875C87.6196 72.9625 85.8196 71.3075 81.1396 69.58C74.8746 67.3475 71.9246 63.8925 71.9246 59.715C71.9246 54.1 76.4596 49.4925 83.9471 49.4925C87.4746 49.4925 90.5721 50.4925 92.5146 51.6525L90.9271 56.25C88.7827 54.9353 86.3149 54.2428 83.7996 54.25C80.0496 54.25 77.9671 56.41 77.9671 59C77.9671 61.88 80.0546 63.175 84.5921 64.905C90.6396 67.21 93.7371 70.2325 93.7371 75.405C93.7371 81.525 88.9871 85.845 80.7046 85.845C76.8896 85.845 73.3596 84.91 70.9121 83.47L72.4996 78.6525Z" fill="#57C9EC"/>
</g>
</svg>
