<svg width="106" height="108" viewBox="0 0 106 108" fill="none" xmlns="http://www.w3.org/2000/svg">
<g id="GitHub logo">
<g id="XMLID_24_">
<path id="XMLID_26_" fill-rule="evenodd" clip-rule="evenodd" d="M53 1.8186C23.7258 1.8186 0 25.7682 0 55.3186C0 78.9464 15.1878 98.9984 36.2429 106.091C38.8846 106.589 39.8721 104.919 39.8721 103.513C39.8721 102.223 39.8142 98.0308 39.8142 93.546C25.0611 96.7707 21.9536 87.2431 21.9536 87.2431C19.5438 81.0571 16.0573 79.4166 16.0573 79.4166C11.2356 76.1042 16.4052 76.1627 16.4052 76.1627C21.7196 76.5431 24.5373 81.6736 24.5373 81.6736C29.2701 89.8533 36.9385 87.4771 39.9591 86.1292C40.4229 82.6705 41.8182 80.3257 43.3275 78.9756C31.5661 77.6277 19.1649 73.0238 19.1649 52.5328C19.1649 46.7001 21.2269 41.9206 24.6243 38.1693C24.0715 36.8214 22.2724 31.369 25.146 24.0107C25.146 24.0107 29.5889 22.5749 39.7252 29.4923C43.9652 28.3199 48.495 27.7034 52.9979 27.7034C57.4988 27.7327 62.0307 28.3199 66.2707 29.4923C76.378 22.5749 80.8209 24.0107 80.8209 24.0107C83.6965 31.369 81.8954 36.8214 81.3426 38.1693C84.74 41.9227 86.802 46.7001 86.802 52.5328C86.802 73.0823 74.4008 77.5963 62.6104 78.9171C64.4985 80.589 66.2107 83.8429 66.2107 88.8251C66.2107 95.9786 66.1527 101.753 66.1527 103.513C66.1527 104.948 67.1112 106.591 69.782 106.091C90.8412 98.9984 106 78.9756 106 55.3186C106 25.7682 82.2742 1.8186 53 1.8186Z" fill="#181616"/>
<path id="XMLID_30_" d="M20.0679 78.6246C19.952 78.8879 19.5462 78.9757 19.1674 78.8001C18.7906 78.6246 18.5566 78.2735 18.7036 78.0081C18.8195 77.7448 19.2253 77.657 19.6042 77.8325C19.981 78.0081 20.2129 78.3613 20.0679 78.6246Z" fill="#181616"/>
<path id="XMLID_31_" d="M22.2165 81.0571C21.9556 81.2912 21.4608 81.1742 21.142 80.8231C20.7942 80.4427 20.7362 79.9432 20.9971 79.7092C21.2579 79.4751 21.7238 79.5921 22.0716 79.9432C22.4194 80.3236 22.4773 80.8231 22.2165 81.0571Z" fill="#181616"/>
<path id="XMLID_32_" d="M24.3075 84.1356C23.9887 84.3696 23.4649 84.1648 23.1171 83.6674C22.7982 83.1993 22.7982 82.6121 23.1171 82.378C23.4359 82.144 23.9597 82.3488 24.3075 82.8169C24.6553 83.3143 24.6553 83.9015 24.3075 84.1356Z" fill="#181616"/>
<path id="XMLID_33_" d="M27.1832 87.0967C26.8934 87.4185 26.2826 87.3307 25.8189 86.8919C25.3551 86.453 25.2371 85.8365 25.5291 85.5146C25.821 85.1928 26.4586 85.2806 26.8934 85.7195C27.3571 86.1876 27.4731 86.802 27.1832 87.0967Z" fill="#181616"/>
<path id="XMLID_34_" d="M31.1312 88.8251C31.0152 89.2347 30.4045 89.4416 29.7958 89.264C29.1851 89.0885 28.8083 88.589 28.9242 88.1794C29.0402 87.7698 29.6509 87.5629 30.2596 87.7405C30.8413 87.9161 31.2471 88.4155 31.1312 88.8251Z" fill="#181616"/>
<path id="XMLID_35_" d="M35.458 89.149C35.487 89.5879 34.9652 89.9703 34.3255 89.9703C33.6858 89.9996 33.193 89.6192 33.1641 89.1782C33.1641 88.7394 33.6568 88.3569 34.2965 88.3569C34.9363 88.3569 35.458 88.708 35.458 89.149Z" fill="#181616"/>
<path id="XMLID_36_" d="M39.4955 88.474C39.5824 88.9129 39.1477 89.3539 38.5079 89.4709C37.8972 89.5879 37.3175 89.3246 37.2595 88.8836C37.1726 88.4448 37.6363 88.0038 38.2471 87.8868C38.8578 87.7698 39.4085 88.0352 39.4955 88.474Z" fill="#181616"/>
</g>
</g>
</svg>
