<svg width="146" height="80" viewBox="0 0 146 80" fill="none" xmlns="http://www.w3.org/2000/svg">
<g id="Gmail logo" clip-path="url(#clip0_85_114)">
<path id="Vector" d="M120.251 80H26.3671C24.5886 80 22.8829 79.3058 21.6253 78.0699C20.3677 76.8341 19.6611 75.1579 19.6611 73.4102V7.5115C19.6611 5.76376 20.3677 4.0876 21.6253 2.85176C22.8829 1.61592 24.5886 0.921631 26.3671 0.921631H120.251C122.029 0.921631 123.735 1.61592 124.993 2.85176C126.25 4.0876 126.957 5.76376 126.957 7.5115V73.4102C126.957 75.1579 126.25 76.8341 124.993 78.0699C123.735 79.3058 122.029 80 120.251 80Z" fill="#EAEAEA"/>
<path id="Vector_2" d="M33.0731 80H26.3671C24.5886 80 22.8829 79.3058 21.6253 78.0699C20.3677 76.8341 19.6611 75.1579 19.6611 73.4102V7.5115C19.6611 6.6461 19.8346 5.78919 20.1716 4.98967C20.5086 4.19015 21.0026 3.46368 21.6253 2.85176C22.248 2.23983 22.9872 1.75443 23.8008 1.42325C24.6145 1.09208 25.4865 0.921631 26.3671 0.921631C27.2478 0.921631 28.1198 1.09208 28.9334 1.42325C29.747 1.75443 30.4863 2.23983 31.109 2.85176C31.7317 3.46368 32.2256 4.19015 32.5626 4.98967C32.8996 5.78919 33.0731 6.6461 33.0731 7.5115V80Z" fill="#D54C3F"/>
<path id="Vector_3" d="M113.545 80H120.251C122.029 80 123.735 79.3058 124.993 78.0699C126.25 76.8341 126.957 75.1579 126.957 73.4102V7.5115C126.957 5.76376 126.25 4.0876 124.993 2.85176C123.735 1.61592 122.029 0.921631 120.251 0.921631C118.472 0.921631 116.767 1.61592 115.509 2.85176C114.251 4.0876 113.545 5.76376 113.545 7.5115V80Z" fill="#B63524"/>
<path id="Vector_4" d="M124.091 12.9151C124.813 12.4196 125.429 11.7891 125.903 11.0596C126.378 10.3302 126.701 9.51617 126.855 8.66396C127.009 7.81175 126.991 6.93807 126.801 6.09282C126.611 5.24756 126.254 4.44727 125.75 3.73765C125.246 3.02803 124.604 2.42297 123.862 1.95701C123.12 1.49106 122.291 1.17333 121.424 1.02198C120.557 0.870635 119.668 0.888622 118.807 1.07492C117.947 1.26122 117.133 1.61218 116.411 2.10776L73.3137 32.9417L73.3092 32.9439L73.3047 32.9417L30.2076 2.10776C28.7492 1.10688 26.946 0.71632 25.1945 1.02198C23.4431 1.32765 21.8869 2.3045 20.8684 3.73765C19.8499 5.1708 19.4525 6.94285 19.7635 8.66396C20.0746 10.3851 21.0686 11.9143 22.527 12.9151L22.3482 12.7855L73.3092 49.2473M124.272 12.7855L73.3092 49.2473Z" fill="#DE5145"/>
<path id="Vector_5" d="M120.251 0.921639C118.823 0.921639 117.497 1.36096 116.411 2.10781L73.3135 32.9418L73.309 32.944L73.3046 32.9418L30.2075 2.10781C29.082 1.33373 27.741 0.919524 26.3672 0.921639H120.251Z" fill="#EFEFEF"/>
<path id="Vector_6" d="M33.0758 23.3007L21.774 12.3L21.7695 12.3088C22.0065 12.5285 22.2591 12.7306 22.5273 12.9151L22.3485 12.7855L33.0781 20.4627L33.0758 23.3798" fill="#C64132"/>
<path id="Vector_7" d="M65.861 54.9387L33.0732 79.9999L33.0755 23.0261L65.8543 54.9299" fill="#E3E3E3"/>
<path id="Vector_8" d="M65.8607 54.9386L73.3088 49.2472L33.0752 20.4626V23.0261L65.854 54.9299L65.8607 54.9386Z" fill="url(#paint0_linear_85_114)"/>
<path id="Vector_9" d="M91.3283 79.9999H113.545V20.4604L73.3093 49.2472L65.8545 54.9299L91.3283 79.9999Z" fill="url(#paint1_linear_85_114)"/>
</g>
<defs>
<linearGradient id="paint0_linear_85_114" x1="33.0752" y1="37.7017" x2="73.3088" y2="37.7017" gradientUnits="userSpaceOnUse">
<stop stop-color="#C8C8C8"/>
<stop offset="1" stop-color="#CDCDCD"/>
</linearGradient>
<linearGradient id="paint1_linear_85_114" x1="65.8545" y1="50.2291" x2="113.545" y2="50.2291" gradientUnits="userSpaceOnUse">
<stop stop-color="#D9D9D9"/>
<stop offset="1" stop-color="#E2E2E2"/>
</linearGradient>
<clipPath id="clip0_85_114">
<rect width="146" height="80" fill="white"/>
</clipPath>
</defs>
</svg>
