<svg width="110" height="110" viewBox="0 0 110 110" fill="none" xmlns="http://www.w3.org/2000/svg">
<g id="Group">
<path id="Vector" d="M55 110C85.3757 110 110 85.3757 110 55C110 24.6243 85.3757 0 55 0C24.6243 0 0 24.6243 0 55C0 85.3757 24.6243 110 55 110Z" fill="#007AB9"/>
<g id="Group_2">
<path id="Vector_2" d="M87.8628 59.4258V82.1011H74.7163V60.9455C74.7163 55.6335 72.8182 52.0059 68.0582 52.0059C64.4257 52.0059 62.2678 54.4482 61.3148 56.8129C60.9687 57.6581 60.8795 58.8317 60.8795 60.017V82.1001H47.732C47.732 82.1001 47.9084 46.2694 47.732 42.5605H60.8805V48.1636C60.854 48.2077 60.8168 48.2509 60.7932 48.293H60.8805V48.1636C62.6276 45.4753 65.7434 41.632 72.7289 41.632C81.3783 41.632 87.8628 47.2832 87.8628 59.4258ZM33.9785 23.501C29.4813 23.501 26.5391 26.453 26.5391 30.3316C26.5391 34.1278 29.396 37.1652 33.806 37.1652H33.8913C38.4767 37.1652 41.3278 34.1278 41.3278 30.3316C41.2406 26.453 38.4767 23.501 33.9785 23.501ZM27.3205 82.1011H40.4631V42.5605H27.3205V82.1011Z" fill="#F1F2F2"/>
</g>
</g>
</svg>
