<svg width="197" height="112" viewBox="0 0 197 112" fill="none" xmlns="http://www.w3.org/2000/svg">
<g id="Cisco logo" clip-path="url(#clip0_80_306)">
<path id="Vector" d="M64.0349 100.082H55.9766V68.2073H64.0349V100.082Z" fill="#C4122E"/>
<g id="Group">
<g id="Clip path group">
<mask id="mask0_80_306" style="mask-type:luminance" maskUnits="userSpaceOnUse" x="0" y="-1" width="197" height="113">
<g id="b">
<path id="Vector_2" d="M0.0205078 111.999H196.98V-0.000648499H0.0205078V111.999Z" fill="white"/>
</g>
</mask>
<g mask="url(#mask0_80_306)">
<g id="Group_2">
<path id="Vector_3" d="M129.012 77.3403C128.68 77.1721 126.086 75.6385 122.232 75.6385C117.022 75.6385 113.408 79.2562 113.408 84.1402C113.408 88.8764 116.867 92.6496 122.232 92.6496C126.02 92.6496 128.657 91.1464 129.012 90.9579V99.5131C128.001 99.7933 125.247 100.647 121.668 100.647C112.604 100.647 104.648 94.4101 104.648 84.1377C104.648 74.622 111.846 67.6411 121.668 67.6411C125.446 67.6411 128.248 68.5584 129.012 68.7851V77.3403ZM44.8985 77.3403C44.5743 77.1721 41.9835 75.6385 38.1292 75.6385C32.9093 75.6385 29.2975 79.2562 29.2975 84.1402C29.2975 88.8764 32.7587 92.6496 38.1292 92.6496C41.9172 92.6496 44.5514 91.1464 44.8985 90.9579V99.5131C43.8979 99.7933 41.1463 100.647 37.5473 100.647C28.4909 100.647 20.5449 94.4101 20.5449 84.1377C20.5449 74.622 27.743 67.6411 37.5498 67.6411C41.3428 67.6411 44.1404 68.5584 44.8985 68.7851V77.3403ZM154.361 75.7582C149.58 75.7582 146.029 79.5135 146.029 84.1402C146.029 88.777 149.58 92.5299 154.361 92.5299C159.136 92.5299 162.697 88.777 162.697 84.1402C162.697 79.5135 159.136 75.7582 154.361 75.7582ZM171.235 84.1402C171.235 93.2584 164.183 100.647 154.363 100.647C144.539 100.647 137.496 93.2585 137.496 84.1377C137.496 75.0372 144.541 67.6411 154.361 67.6411C164.183 67.6411 171.235 75.0372 171.235 84.1402ZM94.5935 75.4525C94.4735 75.4143 91.0812 74.4792 88.2939 74.4792C85.0649 74.4792 83.3088 75.5595 83.3088 77.0907C83.3088 79.0321 85.6775 79.7097 87.0023 80.1275L89.2255 80.8333C94.4582 82.4944 96.8397 86.0688 96.8397 89.9515C96.8397 97.959 89.7845 100.649 83.6176 100.649C79.332 100.649 75.3169 99.8596 74.9212 99.778V92.4406C75.6308 92.6189 79.0104 93.6278 82.5303 93.6278C86.5403 93.6278 88.3832 92.456 88.3832 90.6522C88.3832 89.0369 86.7879 88.1044 84.7892 87.4777C84.3043 87.3146 83.5691 87.0853 83.0689 86.9222C78.5815 85.5057 74.8395 82.8714 74.8395 77.5976C74.8395 71.636 79.3115 67.6335 86.7394 67.6335C90.6626 67.6335 94.3535 68.5838 94.5935 68.6475V75.4499V75.4525Z" fill="#C4122E"/>
<path id="Vector_4" d="M11.9992 33.9527C11.9992 31.7566 10.2022 29.9757 7.99942 29.9757C5.7966 29.9757 3.99707 31.7565 3.99707 33.9501V42.3194C4.02343 43.3611 4.45655 44.3513 5.20402 45.0788C5.95149 45.8062 6.95417 46.2133 7.99815 46.2133C9.04214 46.2133 10.0448 45.8062 10.7923 45.0788C11.5397 44.3513 11.9729 43.3611 11.9992 42.3194V33.9527ZM33.9738 22.9721C33.9738 21.913 33.5523 20.8972 32.802 20.1482C32.0516 19.3993 31.0339 18.9785 29.9728 18.9785C28.9116 18.9785 27.8939 19.3993 27.1436 20.1482C26.3932 20.8972 25.9717 21.913 25.9717 22.9721V42.3194C25.9717 43.3786 26.3932 44.3944 27.1436 45.1433C27.8939 45.8922 28.9116 46.313 29.9728 46.313C31.0339 46.313 32.0516 45.8922 32.802 45.1433C33.5523 44.3944 33.9738 43.3786 33.9738 42.3194V22.9695V22.9721ZM55.951 7.94566C55.951 5.74953 54.1541 3.9661 51.9512 3.9661C49.7459 3.9661 47.9489 5.74953 47.9489 7.94566V50.2708C47.9752 51.3125 48.4084 52.3027 49.1558 53.0301C49.9033 53.7576 50.906 54.1648 51.9499 54.1648C52.9939 54.1648 53.9966 53.7576 54.7441 53.0301C55.4916 52.3027 55.9247 51.3125 55.951 50.2708V7.94566ZM77.9257 22.9721C77.9257 21.913 77.5041 20.8972 76.7538 20.1482C76.0034 19.3993 74.9857 18.9785 73.9246 18.9785C72.8634 18.9785 71.8457 19.3993 71.0954 20.1482C70.345 20.8972 69.9235 21.913 69.9235 22.9721V42.3194C69.9235 43.3786 70.345 44.3944 71.0954 45.1433C71.8457 45.8922 72.8634 46.313 73.9246 46.313C74.9857 46.313 76.0034 45.8922 76.7538 45.1433C77.5041 44.3944 77.9257 43.3786 77.9257 42.3194V22.9695V22.9721ZM99.8773 33.9527C99.878 32.8991 99.4594 31.8883 98.7137 31.1425C97.968 30.3968 96.9561 29.977 95.9005 29.9757C94.8426 29.975 93.8275 30.393 93.0778 31.138C92.328 31.883 91.9047 32.8942 91.9007 33.9501V42.3194C91.9007 43.3752 92.3209 44.3877 93.0688 45.1343C93.8168 45.8808 94.8312 46.3002 95.889 46.3002C96.9468 46.3002 97.9612 45.8808 98.7092 45.1343C99.4571 44.3877 99.8773 43.3752 99.8773 42.3194V33.9527ZM121.862 22.9721C121.836 21.9338 121.404 20.9467 120.659 20.2216C119.914 19.4965 118.914 19.0907 117.874 19.0907C116.833 19.0907 115.834 19.4965 115.089 20.2216C114.344 20.9467 113.912 21.9338 113.886 22.9721V42.3194C113.886 43.3752 114.306 44.3877 115.054 45.1343C115.802 45.8808 116.816 46.3002 117.874 46.3002C118.932 46.3002 119.946 45.8808 120.694 45.1343C121.442 44.3877 121.862 43.3752 121.862 42.3194V22.9695V22.9721ZM143.852 7.94566C143.852 6.88989 143.432 5.87735 142.684 5.1308C141.936 4.38425 140.922 3.96486 139.864 3.96486C138.806 3.96486 137.792 4.38425 137.044 5.1308C136.296 5.87735 135.875 6.88989 135.875 7.94566V50.2708C135.852 50.8082 135.938 51.3448 136.127 51.8483C136.317 52.3518 136.607 52.8118 136.98 53.2004C137.352 53.589 137.8 53.8983 138.296 54.1096C138.791 54.3209 139.325 54.4299 139.864 54.4299C140.403 54.4299 140.936 54.3209 141.432 54.1096C141.927 53.8983 142.375 53.589 142.748 53.2004C143.12 52.8118 143.41 52.3518 143.6 51.8483C143.79 51.3448 143.876 50.8082 143.852 50.2708V7.94566ZM165.837 22.9721C165.837 20.7734 164.053 18.9874 161.799 18.9874C160.741 18.9881 159.727 19.4079 158.979 20.1546C158.232 20.9013 157.812 21.9138 157.812 22.9695V42.3194C157.812 44.5283 159.599 46.3091 161.799 46.3091C164.053 46.3091 165.837 44.5283 165.837 42.3194V22.9695V22.9721ZM187.781 33.9527C187.781 32.896 187.36 31.8823 186.612 31.1351C185.863 30.3878 184.848 29.9681 183.789 29.9681C182.73 29.9681 181.715 30.3878 180.966 31.1351C180.217 31.8823 179.797 32.896 179.797 33.9527V42.3194C179.797 44.5283 181.586 46.3116 183.789 46.3116C185.989 46.3116 187.778 44.5283 187.778 42.3194V33.9527H187.781Z" fill="#15495D"/>
<path id="Vector_5" d="M183.168 95.8826V96.3819H181.744V100.079H181.157V96.3846H179.728V95.8826H183.168ZM183.467 95.8826H184.383L185.642 99.3246H185.662L186.88 95.8851H187.778V100.079H187.178V96.6393H187.158L185.882 100.079H185.328L184.082 96.6393H184.054V100.079H183.467V95.8826Z" fill="#C4122E"/>
</g>
</g>
</g>
</g>
</g>
<defs>
<clipPath id="clip0_80_306">
<rect width="197" height="112" fill="white"/>
</clipPath>
</defs>
</svg>
