<svg width="136" height="132" viewBox="0 0 136 132" fill="none" xmlns="http://www.w3.org/2000/svg">
<g id="Linux logo" clip-path="url(#clip0_80_189)">
<g id="Group">
<g id="Group_2">
<path id="Vector" d="M96.1548 46.8696C97.637 49.9786 99.2913 53.0099 100.762 56.1246C103.591 62.1189 105.741 68.4477 106.633 74.9756C107.526 81.5035 107.138 88.2446 105.021 94.5037C102.627 101.569 98.0831 107.855 92.5156 113C85.9293 119.086 77.4747 123.778 68.3545 124.124C62.4119 124.35 56.4956 122.713 51.2331 120.045C46.8105 117.803 42.773 114.815 39.5518 111.135C36.3306 107.454 33.9388 103.072 32.8312 98.3774C31.4673 92.5967 32.0846 86.4599 34.1486 80.8752C35.625 76.8813 37.8133 73.1629 39.3711 69.198C41.0737 64.8656 42.0242 60.2395 44.2799 56.1483C46.3239 52.4386 49.3903 49.27 51.0192 45.3744C51.992 43.0477 52.414 40.5487 53.0422 38.1142C53.6705 35.6796 54.55 33.2275 56.2607 31.3363C58.323 29.0574 61.4245 27.8222 64.5415 27.4753C67.6584 27.1285 70.8137 27.5968 73.8729 28.269C76.3084 28.804 78.7143 29.4683 81.0678 30.2747C83.0768 30.9631 85.0675 31.7647 86.8047 32.9557C89.1719 34.5781 90.9746 36.8627 92.4109 39.2955C93.8472 41.7283 94.9466 44.3272 96.1593 46.8701L96.1548 46.8696Z" fill="#020204"/>
<path id="Vector_2" d="M69.9838 124.179C72.4876 124.32 74.9868 124.554 77.4678 124.915C79.6494 125.234 81.8154 125.645 83.9595 126.148C87.3177 126.932 90.6642 127.932 94.1185 128.026C95.0276 128.051 95.9394 128.012 96.8317 127.822C97.7239 127.632 98.5807 127.285 99.2922 126.739C100.353 125.925 101.022 124.696 101.276 123.412C101.529 122.128 101.37 120.792 100.98 119.54C100.199 117.038 98.5215 114.903 97.139 112.657C96.3446 111.372 95.6367 110.035 94.7763 108.79C93.9159 107.545 92.8871 106.378 91.5806 105.567C89.7742 104.445 87.5344 104.08 85.3962 104.285C83.258 104.49 81.208 105.234 79.2997 106.186C76.6247 107.52 74.1068 109.352 72.6487 111.891C72.1411 112.775 71.7724 113.724 71.3413 114.645C70.9102 115.566 70.4053 116.471 69.6751 117.196C68.8603 118.004 67.8032 118.548 66.9606 119.328C66.5395 119.723 66.1707 120.172 65.959 120.696C65.7474 121.219 65.6895 121.816 65.8862 122.346C66.0214 122.71 66.2686 123.03 66.5736 123.28C66.8786 123.531 67.2392 123.715 67.6175 123.842C68.3732 124.098 69.188 124.136 69.9879 124.18L69.9838 124.179Z" fill="#020204"/>
<path id="Vector_3" d="M62.5418 124.024C60.455 124.07 58.39 124.43 56.3506 124.837C54.3967 125.226 52.452 125.659 50.5218 126.147C47.265 126.97 44.0042 127.957 40.6377 128.025C39.7518 128.043 38.8596 127.997 37.996 127.804C37.1324 127.612 36.2966 127.27 35.6037 126.737C34.5453 125.924 33.8725 124.698 33.6235 123.417C33.3745 122.136 33.5265 120.802 33.9125 119.552C34.6851 117.053 36.3417 114.913 37.6983 112.656C38.469 111.374 39.1491 110.04 39.9826 108.794C40.8162 107.549 41.82 106.379 43.1055 105.565C44.8573 104.456 47.042 104.08 49.1283 104.278C51.2146 104.476 53.214 105.216 55.0541 106.184C57.6517 107.551 60.0239 109.432 61.5257 111.885C62.5796 113.608 63.1873 115.579 64.4192 117.19C65.0824 118.057 65.9214 118.806 66.4677 119.743C66.7436 120.211 66.9457 120.728 66.9926 121.265C67.0395 121.802 66.9243 122.36 66.6102 122.806C66.4031 123.101 66.1154 123.34 65.794 123.516C65.4726 123.691 65.118 123.807 64.756 123.879C64.0277 124.025 63.2856 124.002 62.5459 124.02L62.5418 124.024ZM50.8814 40.3211C50.5882 36.9227 50.6538 33.5055 50.5263 30.0975C50.3998 26.8206 50.0866 23.5455 50.2008 20.2681C50.3174 16.9355 50.8973 13.5591 52.4379 10.5642C53.9784 7.56922 56.4803 5.03558 59.5327 3.45085C62.4007 1.95995 65.7084 1.32281 68.9715 1.35702C73.3964 1.4035 77.8322 2.69093 81.4149 5.19124C83.6615 6.75756 85.5507 8.77684 87.0411 11.0294C88.3126 12.9522 89.3005 15.0522 89.9205 17.2561C91.192 21.7726 90.8901 26.5294 91.1378 31.1986C91.3722 35.6239 92.1074 40.0387 91.8571 44.4631C91.8024 45.4278 91.695 46.4074 91.2502 47.2695C90.8169 48.1092 90.0812 48.7845 89.2358 49.2502C88.3905 49.7159 87.439 49.9807 86.4771 50.1237C84.5528 50.4096 82.5849 50.221 80.6465 50.3942C77.8331 50.6455 75.1495 51.6505 72.3576 52.0667C69.0343 52.5622 65.6397 52.2114 62.275 52.0816C60.9275 52.0298 59.5755 52.0136 58.238 51.8518C56.9005 51.69 55.5658 51.3782 54.3758 50.767C53.6474 50.3907 52.9677 49.9009 52.4206 49.298C51.8734 48.6951 51.4555 47.9825 51.2474 47.2033C50.9347 46.04 51.0995 44.8152 51.104 43.6133C51.1086 42.5144 50.9756 41.4195 50.8764 40.3246L50.8814 40.3211Z" fill="#020204"/>
</g>
<path id="Vector_4" d="M56.1753 39.0117C55.6991 39.5861 55.3887 40.2776 55.2011 40.991C55.0136 41.7045 54.9453 42.4416 54.9157 43.1765C54.8574 44.6468 54.9503 46.1451 54.5469 47.5641C54.1145 49.0813 53.1466 50.3951 52.1988 51.6764C50.5577 53.8952 48.8984 56.171 48.0894 58.7809C47.5992 60.3617 47.4357 62.0359 47.6124 63.6767C45.7755 66.2753 44.1844 69.0352 42.8675 71.9117C40.8708 76.2713 39.5005 80.9128 39.0184 85.6542C38.4285 91.4608 39.1996 97.4332 41.58 102.798C43.3008 106.677 45.8674 110.228 49.1761 112.992C50.8582 114.397 52.7269 115.597 54.73 116.542C61.6554 119.821 70.2138 119.827 77.0242 116.332C80.5832 114.505 83.5877 111.834 86.4839 109.131C88.2284 107.503 89.9637 105.837 91.2944 103.88C93.856 100.112 94.7482 95.5323 95.3027 91.0605C96.2724 83.2407 96.3033 74.9808 92.7443 67.8911C91.5153 65.4455 89.8892 63.2043 87.9275 61.2518C87.4062 57.8403 86.3769 54.5003 84.881 51.3672C83.8021 49.1068 82.4829 46.955 81.4804 44.6626C81.0689 43.7211 80.7065 42.7573 80.2545 41.8356C79.8024 40.9139 79.2348 40.0268 78.4682 39.3208C77.6838 38.5973 76.7064 38.0851 75.6748 37.7571C74.6433 37.4291 73.558 37.2805 72.4745 37.2278C70.3053 37.1226 68.1316 37.3958 65.962 37.3129C64.2343 37.2471 62.5122 36.9551 60.7859 37.0533C59.9228 37.1024 59.0606 37.2506 58.2594 37.5642C57.4582 37.8777 56.7198 38.3609 56.1808 39.0112L56.1753 39.0117Z" fill="#FDFDFB"/>
<g id="Vector_5" filter="url(#filter0_f_80_189)">
<path d="M55.1119 46.8108C55.8872 48.9761 57.4473 50.824 59.2937 52.2675C59.9083 52.7476 60.5602 53.1901 61.2813 53.5027C62.0024 53.8154 62.7981 53.9938 63.5857 53.9289C64.3573 53.8658 65.0911 53.5738 65.7662 53.2072C66.4413 52.8406 67.0664 52.3973 67.7206 51.9982C68.8418 51.3142 70.0423 50.7617 71.2063 50.1478C72.6093 49.408 73.9696 48.5692 75.1509 47.5343C75.6917 47.0586 76.1961 46.5398 76.7934 46.1311C77.3906 45.7225 78.1058 45.4269 78.8365 45.4747C79.3846 45.5107 79.8985 45.7352 80.4353 45.8466C80.7084 45.9022 80.9815 45.9299 81.2533 45.8895C81.5251 45.8492 81.7905 45.7387 81.9808 45.5475C82.2139 45.3138 82.3158 44.9775 82.2994 44.653C82.2831 44.3285 82.1702 44.0158 82.0126 43.7291C81.6985 43.1555 81.2228 42.6613 81.0111 42.0461C80.8227 41.498 80.8609 40.906 80.8773 40.3298C80.8937 39.7536 80.8809 39.1503 80.6041 38.6385C80.3938 38.2483 80.0415 37.9391 79.6381 37.7335C79.2348 37.5278 78.7823 37.4265 78.3289 37.3809C77.4207 37.2989 76.5107 37.4686 75.6002 37.5182C74.3911 37.5839 73.1775 37.4384 71.9688 37.5085C70.462 37.5962 68.9838 38.0172 67.4738 38.0198C65.7503 38.0229 64.0286 37.4796 62.326 37.7392C61.5954 37.8505 60.8989 38.1066 60.1974 38.332C59.4958 38.5574 58.7711 38.756 58.0318 38.746C57.1923 38.7341 56.3793 38.4544 55.5417 38.3965C55.1229 38.3675 54.694 38.3965 54.3007 38.5381C53.9074 38.6797 53.5518 38.9433 53.3593 39.3024C53.2487 39.5085 53.194 39.7396 53.1836 39.9711C53.1731 40.2027 53.2063 40.4346 53.2646 40.6596C53.3807 41.1095 53.5942 41.5291 53.7653 41.9606C54.3995 43.519 54.5356 45.2265 55.1024 46.8086L55.1119 46.8108Z" fill="black" fill-opacity="0.26"/>
</g>
<g id="Vector_6" opacity="0.3" filter="url(#filter1_f_80_189)">
<path d="M52.9504 40.6397C54.4563 41.5364 55.8079 42.6366 56.9428 43.892C57.9957 45.0568 58.8912 46.3776 60.266 47.2403C61.237 47.8494 62.4033 48.1927 63.5865 48.2969C64.9758 48.4193 66.3816 48.2214 67.7209 47.872C68.9623 47.5481 70.1623 47.0925 71.2635 46.4907C73.3567 45.3452 75.1057 43.6662 77.4092 42.9133C77.9131 42.7489 78.438 42.6314 78.9238 42.4286C79.4095 42.2259 79.8661 41.9221 80.0983 41.4924C80.3259 41.0796 80.3122 40.603 80.3851 40.1494C80.4625 39.6647 80.6373 39.1954 80.7329 38.7131C80.8285 38.2308 80.8398 37.7147 80.6054 37.2712C80.4106 36.9036 80.0568 36.6136 79.6494 36.429C79.242 36.2445 78.7845 36.1608 78.3274 36.1407C77.4142 36.1003 76.5119 36.3083 75.6015 36.3822C74.3951 36.4799 73.1805 36.3418 71.9701 36.3741C70.4641 36.4145 68.9801 36.7174 67.4751 36.78C65.7579 36.8519 64.0453 36.6112 62.3273 36.5579C61.5843 36.5345 60.8364 36.5458 60.1039 36.6601C59.3714 36.7744 58.6526 36.9921 58.0326 37.3572C57.4317 37.7114 56.9414 38.1921 56.3906 38.6053C56.1151 38.8121 55.8224 39.0031 55.501 39.1485C55.1796 39.2939 54.8273 39.3929 54.4677 39.4082C54.2824 39.4163 54.0953 39.4022 53.9123 39.4272C53.7588 39.4501 53.6119 39.4998 53.4801 39.5733C53.3483 39.6468 53.2343 39.7428 53.1445 39.8556C53.0547 39.9684 52.991 40.0959 52.9571 40.2307C52.9231 40.3655 52.9196 40.5049 52.9467 40.6409L52.9504 40.6397Z" fill="black"/>
</g>
<path id="Vector_7" d="M56.8708 20.8351C56.0605 20.8776 55.2843 21.2385 54.6912 21.7722C54.098 22.3058 53.6805 23.0052 53.4229 23.7472C52.9085 25.231 53.0246 26.8395 53.1406 28.3952C53.2467 29.8081 53.3546 31.2477 53.9041 32.5619C54.1786 33.2187 54.5642 33.8335 55.0786 34.3439C55.593 34.8543 56.2403 35.2393 56.9532 35.4112C57.6224 35.5726 58.3362 35.5393 58.994 35.3402C59.6519 35.1411 60.2523 34.7789 60.7449 34.315C61.4641 33.6375 61.9481 32.7513 62.2258 31.8199C62.5034 30.8885 62.5827 29.9116 62.5681 28.9434C62.5499 27.7314 62.386 26.5141 61.9918 25.3635C61.5975 24.2129 60.9693 23.1258 60.0921 22.2563C59.6673 21.8353 59.1825 21.4648 58.6353 21.2052C58.0881 20.9456 57.4777 20.7996 56.869 20.8312L56.8708 20.8351Z" fill="url(#paint0_radial_80_189)"/>
<path id="Vector_8" d="M71.2197 20.8351C69.9541 21.6682 68.8934 22.8412 68.3745 24.2335C67.7207 25.9883 67.9711 27.9519 68.6021 29.7147C69.2485 31.52 70.3292 33.2402 71.9617 34.3242C72.7779 34.8661 73.7225 35.2376 74.7068 35.3503C75.691 35.4629 76.7143 35.3086 77.593 34.8679C78.6641 34.3303 79.4813 33.3888 79.9884 32.3334C80.4955 31.2779 80.7122 30.1102 80.7796 28.9482C80.8706 27.4682 80.7159 25.9638 80.2105 24.5632C79.662 23.0416 78.6628 21.6384 77.2638 20.7627C76.5628 20.3251 75.7652 20.0243 74.9376 19.9142C74.11 19.8042 73.2509 19.8866 72.472 20.1782C72.0282 20.3449 71.613 20.5759 71.2201 20.836L71.2197 20.8351Z" fill="url(#paint1_radial_80_189)"/>
<g id="Vector_9" opacity="0.3" filter="url(#filter2_f_80_189)">
<path d="M56.6014 33.4603L54.2633 35.5146C53.8518 35.9137 53.4393 36.3408 53.255 36.874C53.0911 37.3476 53.122 37.8619 53.041 38.3561C53.0137 38.5254 52.9727 38.6937 52.9718 38.8648C52.9703 38.9505 52.9823 39.0359 53.0073 39.1182C53.0333 39.2002 53.0756 39.2774 53.1371 39.3401C53.2381 39.444 53.382 39.5006 53.5267 39.5286C53.6715 39.5567 53.8204 39.5602 53.9674 39.5756C54.6302 39.6444 55.2411 39.954 55.7902 40.3188L57.4062 41.4523C58.649 42.2127 60.1345 42.5508 61.6062 42.6047C63.078 42.6586 64.5461 42.4425 65.9901 42.164C67.1373 41.943 68.2818 41.6817 69.3703 41.2677C71.0378 40.6345 72.5405 39.6598 73.9763 38.6271C74.6287 38.1579 75.2719 37.6742 75.8578 37.1296C76.0567 36.9446 76.2493 36.7525 76.4624 36.5833C76.6754 36.414 76.9121 36.2667 77.1753 36.1851C77.5759 36.061 78.0111 36.0965 78.4262 36.1632C78.739 36.2136 79.0526 36.2816 79.3695 36.2684C79.5279 36.2623 79.6868 36.236 79.8338 36.179C79.9809 36.122 80.117 36.0343 80.2176 35.9159C80.3489 35.7576 80.4199 35.5607 80.4188 35.3581C80.4197 35.1573 80.3551 34.9591 80.2504 34.7859C80.0387 34.4394 79.6731 34.2057 79.2921 34.0426C78.7704 33.819 78.2059 33.7093 77.6505 33.5795C75.9457 33.1831 74.2886 32.5973 72.7176 31.8457C71.9364 31.4721 71.1771 31.0582 70.4087 30.6618C69.6184 30.254 68.8131 29.862 67.9549 29.6116C66.037 29.0516 63.9398 29.2353 62.0474 29.8685C59.9442 30.5719 58.0427 31.8256 56.6 33.459L56.6014 33.4603Z" fill="black"/>
</g>
<path id="Vector_10" d="M60.6803 31.1398C61.4847 30.2685 62.0351 29.206 62.808 28.3084C63.195 27.8598 63.6402 27.4511 64.1655 27.1609C64.6909 26.8706 65.3 26.7048 65.9032 26.7548C66.5742 26.8109 67.2029 27.1328 67.6941 27.577C68.1853 28.0212 68.5499 28.5855 68.8413 29.1665C69.1199 29.7269 69.3411 30.3242 69.7426 30.8109C70.1705 31.3301 70.7715 31.6844 71.3132 32.0926C71.5845 32.2965 71.8444 32.518 72.0589 32.7767C72.2733 33.0354 72.4413 33.3362 72.5095 33.6611C72.5767 33.9937 72.5476 34.3376 72.4253 34.6552C72.3061 34.9709 72.1035 35.2568 71.8517 35.4901C71.3482 35.9571 70.6617 36.2093 69.9698 36.3035C68.5859 36.4921 67.186 36.0948 65.7889 36.1325C64.3745 36.1698 62.9929 36.6517 61.5789 36.6017C60.8719 36.5767 60.1549 36.4105 59.5741 36.0216C59.2811 35.8283 59.0336 35.5779 58.8475 35.2867C58.6645 34.9951 58.553 34.6596 58.5411 34.3193C58.5297 33.9948 58.6085 33.6704 58.7432 33.3722C58.878 33.074 59.0678 32.8013 59.2813 32.5496C59.7093 32.0462 60.2314 31.6261 60.6798 31.1402L60.6803 31.1398Z" fill="url(#paint2_radial_80_189)"/>
<g id="Vector_11" filter="url(#filter3_f_80_189)">
<path d="M76.451 7.0169C75.284 7.81013 75.7938 8.80041 76.2958 9.79472C76.7978 10.789 75.1922 13.6548 75.1749 13.7781C75.1576 13.9013 78.3352 12.3255 79.2011 11.3014C80.224 10.0923 82.8083 12.9373 82.6683 12.5038C82.6693 11.7293 77.6186 6.22366 76.4516 7.0169H76.451Z" fill="#7C7C7C"/>
</g>
<g id="Group_3">
<path id="Vector_12" d="M74.1382 24.5163C73.6625 24.5491 73.1986 24.7057 72.7953 24.9548C72.392 25.2038 72.0473 25.5314 71.7769 25.9107C71.2366 26.6684 70.9985 27.5976 70.9607 28.5154C70.932 29.2047 71.0108 29.9032 71.2484 30.5544C71.486 31.2055 71.8857 31.8085 72.4379 32.2483C73.0024 32.6986 73.7199 32.9692 74.4523 33.0025C75.1848 33.0358 75.9273 32.8328 76.5282 32.4294C77.0076 32.108 77.3941 31.6655 77.6695 31.1696C77.9449 30.6736 78.1111 30.1246 78.1862 29.5669C78.32 28.5816 78.1689 27.5529 77.6959 26.6697C77.2229 25.7866 76.4212 25.0591 75.4529 24.7158C75.0341 24.5667 74.5835 24.4895 74.1382 24.5202V24.5163Z" fill="#020204"/>
<g id="Vector_13" filter="url(#filter4_f_80_189)">
<path d="M75.2731 27.5222C74.8789 27.6722 74.2548 27.5779 74.0822 27.9506C73.9798 28.1716 74.1246 28.5351 74.3568 28.6259C74.8266 28.8101 75.5549 28.4768 75.7452 28.023C75.8272 27.8256 75.7029 27.5143 75.4994 27.431C75.4243 27.4003 75.3492 27.4924 75.2736 27.5213L75.2731 27.5222Z" fill="#141413"/>
</g>
<g id="Vector_14" filter="url(#filter5_f_80_189)">
<path d="M77.0804 28.5088C77.6085 28.0002 76.7044 26.6496 75.9992 26.0971C75.4885 25.6967 74.0008 25.2771 74.0645 25.7134C74.1282 26.1497 74.7929 26.707 75.2458 27.1328C75.7976 27.6568 76.83 28.7509 77.0804 28.5088Z" fill="url(#paint3_linear_80_189)"/>
</g>
</g>
<g id="Clip path group">
<mask id="mask0_80_189" style="mask-type:luminance" maskUnits="userSpaceOnUse" x="67" y="20" width="14" height="16">
<g id="t">
<path id="Vector_15" d="M71.219 20.8351C70.0595 21.7678 68.8481 22.8522 68.3738 24.2335C67.7774 25.9699 67.6304 28.1435 68.6014 29.7147C70.3859 32.6009 74.239 35.7879 77.5923 34.867C79.8115 34.2575 80.3724 31.1398 80.7789 28.9473C81.0475 27.4972 81.0502 25.7932 80.2099 24.5623C78.5655 22.1537 75.4631 20.2238 72.4709 20.1774C71.9956 20.1699 71.5832 20.5413 71.219 20.8351Z" fill="white"/>
</g>
</mask>
<g mask="url(#mask0_80_189)">
<path id="Vector_16" d="M66.4393 25.2749C67.5286 24.4045 68.7849 23.7489 70.1368 23.3455C72.9073 22.5211 76.0548 22.8469 78.5031 24.3431C79.3484 24.8596 80.1018 25.5016 80.8885 26.0988C81.6751 26.6961 82.5091 27.2565 83.4542 27.5766C83.964 27.7493 84.5094 27.8497 85.0475 27.7958C85.5337 27.7467 86.0035 27.5713 86.4059 27.3047C86.8084 27.0381 87.1457 26.6829 87.3983 26.2799C87.9046 25.4744 88.0675 24.4974 87.9801 23.5599C87.8058 21.6845 86.7073 20.0287 85.7868 18.3681C85.4986 17.848 85.2241 17.3188 84.8763 16.8334C83.8097 15.3442 82.1117 14.362 80.3308 13.7867C78.5499 13.2114 76.668 13.0035 74.8043 12.7773C73.973 12.6764 73.1322 12.5712 72.3005 12.6676C71.3445 12.7786 70.4449 13.15 69.5122 13.3802C69.0692 13.4898 68.6181 13.5666 68.1792 13.6889C67.7404 13.8112 67.3084 13.9827 66.9515 14.2572C66.4302 14.6589 66.1025 15.2613 65.9604 15.8897C65.8184 16.5181 65.8512 17.1719 65.955 17.8068C66.1635 19.0767 66.656 20.3168 66.6096 21.6016C66.5777 22.4838 66.29 23.3503 66.3251 24.2326C66.3355 24.4957 66.3738 24.7487 66.4389 25" fill="url(#paint4_linear_80_189)"/>
</g>
</g>
<g id="Vector_17" filter="url(#filter6_f_80_189)">
<path d="M75.6149 17.2231C75.3978 17.4862 75.2016 17.7721 75.0459 18.087C76.0228 18.2896 76.9579 18.6772 77.791 19.2109C79.4048 20.2431 80.6303 21.7524 81.4897 23.4314C81.69 23.2174 81.873 22.9876 82.0306 22.7324C81.1665 20.9837 79.9165 19.402 78.2467 18.3343C77.4445 17.8213 76.5509 17.4336 75.6154 17.2249L75.6149 17.2231Z" fill="url(#paint5_linear_80_189)"/>
</g>
<g id="Vector_18" filter="url(#filter7_f_80_189)">
<path d="M56.779 18.0804C56.6689 18.0782 56.5619 18.0878 56.4513 18.0927L56.2373 18.105C56.8806 18.1611 57.5202 18.3277 58.101 18.5785C58.8931 18.9206 59.5915 19.4086 60.2065 19.9642C61.3464 20.9925 62.1936 22.2619 62.7672 23.6081C62.627 22.5908 62.3097 21.6037 61.8285 20.6881C61.6036 20.4382 61.3705 20.1926 61.1174 19.9646C60.5029 19.4095 59.8036 18.9219 59.012 18.579C58.32 18.2795 57.5488 18.0931 56.7786 18.08L56.779 18.0804Z" fill="url(#paint6_linear_80_189)"/>
</g>
<path id="Vector_19" d="M54.9174 27.303C54.748 28.2878 54.7417 29.3209 55.0931 30.2598C55.3207 30.8798 55.7077 31.4424 56.1729 31.9261C56.4779 32.2426 56.823 32.5303 57.2273 32.7167C57.6315 32.903 58.0995 32.9824 58.5338 32.8776C58.9344 32.7811 59.2858 32.5312 59.5444 32.2212C59.803 31.9111 59.976 31.5402 60.0989 31.16C60.4617 30.0374 60.4039 28.8088 60.0433 27.6853C59.7807 26.8667 59.3459 26.0769 58.6653 25.5249C58.3408 25.2618 57.9606 25.0557 57.5477 24.9605C57.1348 24.8654 56.6873 24.8882 56.3013 25.057C55.8725 25.2447 55.5402 25.602 55.3226 26.0041C55.105 26.4062 54.9934 26.8548 54.9165 27.3021L54.9174 27.303Z" fill="#020204"/>
<g id="Vector_20" filter="url(#filter8_f_80_189)">
<path d="M57.0786 26.5904C57.1887 26.8684 57.5584 26.9693 57.7614 27.1933C57.9585 27.4113 58.1652 27.6362 58.2735 27.9059C58.4807 28.4216 58.0687 29.1863 58.5012 29.5503C58.6368 29.6643 58.9086 29.6669 59.042 29.5503C59.5632 29.0934 59.4471 28.1716 59.2414 27.5222C59.0547 26.9329 58.5918 26.3751 58.0213 26.0949C57.7573 25.9655 57.3613 25.8581 57.1355 26.0423C56.9898 26.1607 57.0107 26.4194 57.0786 26.5904Z" fill="url(#paint7_linear_80_189)"/>
</g>
<g id="Group_4">
<path id="Vector_21" d="M53.011 39.5458C53.0383 39.6752 53.0898 39.8002 53.1599 39.9142C53.281 40.1093 53.4576 40.2676 53.6483 40.4009C53.8391 40.5342 54.0457 40.6465 54.2456 40.7671C55.3081 41.4103 56.1735 42.315 56.9429 43.2696C57.9749 44.5509 58.8876 45.9729 60.2661 46.9047C61.2394 47.5625 62.4039 47.9374 63.5866 48.0518C64.975 48.1864 66.3817 47.9703 67.721 47.5905C68.962 47.2384 70.1624 46.7442 71.2636 46.0909C73.3577 44.8473 75.1058 43.0244 77.4093 42.2071C77.9132 42.0286 78.4381 41.901 78.9234 41.6809C79.4087 41.4608 79.8657 41.131 80.0979 40.6644C80.3255 40.2163 80.3119 39.6989 80.3847 39.2064C80.4621 38.6802 80.6369 38.1707 80.7325 37.6471C80.8281 37.1236 80.8395 36.5632 80.605 36.0817C80.4102 35.6827 80.0565 35.3678 79.649 35.1674C79.2416 34.967 78.7841 34.8763 78.327 34.8543C77.4138 34.8105 76.5116 35.0363 75.6011 35.1166C74.3947 35.2227 73.1802 35.0736 71.9697 35.1078C70.4638 35.1517 68.9797 35.4783 67.4747 35.5485C65.7576 35.6287 64.0445 35.3731 62.3269 35.3073C61.5831 35.2784 60.8337 35.2854 60.0999 35.406C59.3661 35.5266 58.6454 35.7673 58.0331 36.1747C57.4368 36.5719 56.9606 37.1131 56.4125 37.5708C56.1385 37.7997 55.8435 38.0093 55.5175 38.1615C55.1916 38.3137 54.8315 38.4088 54.4687 38.4014C54.2866 38.397 54.0908 38.3676 53.9133 38.422C53.8022 38.4557 53.7039 38.5215 53.6201 38.6C53.5363 38.6785 53.4676 38.7697 53.4025 38.8631C53.2511 39.0797 53.1191 39.3082 53.0078 39.5463L53.011 39.5458Z" fill="url(#paint8_radial_80_189)"/>
<g id="Vector_22" filter="url(#filter9_f_80_189)">
<path d="M59.7506 41.3283C59.5804 42.036 59.6884 42.7793 60.0538 43.4147C60.4191 44.0502 61.016 44.5327 61.729 44.7692C62.6295 45.0586 63.6442 44.9165 64.4855 44.4938C64.9726 44.2483 65.4187 43.9036 65.7009 43.4485C65.8437 43.2209 65.9374 42.968 65.9763 42.7048C66.0128 42.4417 65.9877 42.1698 65.8921 41.922C65.7874 41.6502 65.6008 41.4099 65.3704 41.2222C65.1401 41.0345 64.8674 40.8986 64.5815 40.8074C64.0088 40.625 63.3933 40.6215 62.7906 40.6495C61.8774 40.6918 60.9689 40.8022 60.0733 40.9797" fill="#D9B30D"/>
</g>
<g id="Vector_23" filter="url(#filter10_f_80_189)">
<path d="M56.796 35.8835L55.0215 37.0074C54.7224 37.2117 54.4142 37.4328 54.2567 37.7511C54.1447 37.9769 54.1192 38.2334 54.1201 38.4834C54.121 38.7333 54.1338 38.985 54.0992 39.2288C54.0764 39.3981 54.0291 39.5647 54.0209 39.7353C54.0163 39.8208 54.0231 39.9063 54.0464 39.9896C54.0686 40.0728 54.1115 40.1494 54.1715 40.2128C54.2503 40.2931 54.3573 40.3426 54.4674 40.3751C54.5776 40.4075 54.6905 40.4233 54.8025 40.4496C55.3374 40.5706 55.8026 40.8868 56.211 41.2407L57.4128 42.3264C58.5677 43.2315 60.0987 43.6068 61.5828 43.63C63.0668 43.6533 64.5436 43.3538 65.9963 43.0381L69.3764 42.1418C71.0621 41.5432 72.6267 40.6369 73.9824 39.5011C74.597 38.9863 75.1738 38.4207 75.8639 38.0037C76.4739 37.6345 77.1582 37.3907 77.7786 37.0377C77.8342 37.0061 77.8893 36.9736 77.9389 36.9337C77.9885 36.8938 78.0327 36.8469 78.0618 36.7912C78.1119 36.6948 78.1119 36.5807 78.08 36.4773C78.0481 36.3738 77.9862 36.2826 77.9161 36.1993C77.8387 36.1072 77.7509 36.023 77.6566 35.9458C77.0084 35.4108 76.1284 35.217 75.2776 35.1521C74.4267 35.0872 73.5659 35.1333 72.7283 34.9978C71.9362 34.8662 71.1837 34.5856 70.4193 34.3501C69.6175 34.1003 68.7975 33.9083 67.9661 33.7757C66.0108 33.4687 63.9978 33.5275 62.0585 33.916C60.2111 34.2865 58.4303 34.9552 56.8051 35.8805L56.796 35.8835Z" fill="#604405"/>
</g>
<path id="Vector_24" d="M56.6017 33.8988C55.7231 34.4689 54.9328 35.163 54.2636 35.9532C53.8812 36.4048 53.5334 36.896 53.3409 37.4493C53.1893 37.8843 53.1378 38.3447 53.0422 38.7942C53.0058 38.9626 52.9648 39.1319 52.9648 39.3029C52.9653 39.3888 52.9767 39.4752 53.004 39.5572C53.0313 39.6392 53.0759 39.7159 53.1378 39.7778C53.2403 39.8804 53.3837 39.9356 53.5284 39.9646C53.6732 39.9935 53.8216 39.9974 53.9682 40.0137C54.6305 40.086 55.2401 40.396 55.7891 40.76L57.407 41.8904C58.6516 42.649 60.1362 42.9858 61.6075 43.0406C63.0788 43.0954 64.5469 42.8801 65.9914 42.6021C67.1386 42.3816 68.283 42.1198 69.3715 41.7058C71.0386 41.0726 72.5417 40.0979 73.9776 39.0652C74.6299 38.596 75.2732 38.1123 75.859 37.5677C76.058 37.3827 76.2505 37.1906 76.4636 37.0214C76.6766 36.8521 76.9134 36.7048 77.1765 36.6232C77.5771 36.4991 78.0123 36.5346 78.4275 36.6013C78.7402 36.6517 79.0539 36.7197 79.3707 36.7065C79.5291 36.7004 79.688 36.6741 79.8351 36.6171C79.9821 36.5601 80.1182 36.4724 80.2188 36.354C80.3501 36.1957 80.4212 35.9988 80.42 35.7962C80.4209 35.5954 80.3563 35.3972 80.2516 35.224C80.0399 34.8775 79.6744 34.6438 79.2933 34.4807C78.7716 34.2571 78.2071 34.1474 77.6518 34.0177C75.9469 33.6213 74.2898 33.0354 72.7188 32.2838C71.9376 31.9102 71.1783 31.4963 70.4099 31.0999C69.6196 30.6921 68.8143 30.3001 67.9562 30.0497C66.0383 29.4897 63.941 29.6735 62.0486 30.3066C59.9454 31.01 58.0439 32.2637 56.6013 33.8971L56.6017 33.8988Z" fill="url(#paint9_linear_80_189)"/>
<g id="Vector_25" filter="url(#filter11_f_80_189)">
<path d="M70.0766 34.3049C69.9737 34.1795 69.8263 34.091 69.6669 34.0462C69.5076 34.0015 69.3369 34.0024 69.1734 34.0243C68.8457 34.0782 68.5525 34.2436 68.2785 34.4299C67.5 34.9456 66.8126 35.5823 66.2131 36.2848C65.4187 37.2144 64.7631 38.2896 64.5433 39.4748C64.5068 39.6744 64.4818 39.8783 64.5077 40.08C64.5337 40.2817 64.6138 40.4812 64.7627 40.625C64.8929 40.7513 65.0704 40.8285 65.2534 40.8539C65.4364 40.8793 65.6249 40.8548 65.7997 40.7978C66.1502 40.6838 66.4416 40.447 66.7165 40.2102C68.2352 38.9013 69.6086 37.3301 70.1581 35.4393C70.2127 35.2495 70.2601 35.0552 70.2583 34.8583C70.2564 34.6614 70.2032 34.4593 70.0766 34.3049Z" fill="#F6DA4A"/>
</g>
<g id="Vector_26" opacity="0.8" filter="url(#filter12_f_80_189)">
<path d="M66.4392 31.595C66.5439 31.9204 67.0893 31.8669 67.4043 32.0225C67.6807 32.1593 67.9024 32.4597 68.2133 32.4685C68.5092 32.4773 68.9708 32.3698 69.01 32.087C69.0609 31.713 68.4937 31.4753 68.1291 31.338C67.6602 31.1618 67.0579 31.0723 66.6177 31.3082C66.5166 31.3622 66.4065 31.4889 66.4411 31.5954L66.4392 31.595Z" fill="url(#paint10_radial_80_189)"/>
</g>
<g id="Vector_27" opacity="0.8" filter="url(#filter13_f_80_189)">
<path d="M61.2394 31.4065C60.8351 31.2793 60.1664 31.9664 60.3845 32.3186C60.4445 32.415 60.628 32.5378 60.7514 32.472C60.938 32.3734 61.0901 32.0204 61.2917 31.8822C61.4265 31.7902 61.3964 31.456 61.2389 31.4069L61.2394 31.4065Z" fill="url(#paint11_radial_80_189)"/>
</g>
<g id="Vector_28" filter="url(#filter14_f_80_189)">
<path d="M79.0651 38.0902C79.7835 38.0902 80.4466 37.3964 80.5462 36.5405C80.6458 35.6846 80.1442 34.9907 79.4258 34.9907C78.7074 34.9907 78.0443 35.6846 77.9446 36.5405C77.845 37.3964 78.3467 38.0902 79.0651 38.0902Z" fill="url(#paint12_linear_80_189)"/>
</g>
<g id="Clip path group_2">
<mask id="mask1_80_189" style="mask-type:luminance" maskUnits="userSpaceOnUse" x="53" y="19" width="10" height="17">
<g id="h">
<path id="Vector_29" d="M56.8708 20.8351C55.1445 22.9355 52.9931 25.9612 53.141 28.3992C53.289 30.8373 54.8982 34.5097 56.9536 35.4152C59.009 36.3207 59.573 35.4209 60.7457 34.3189C61.9184 33.217 62.5029 31.0968 62.5694 28.9473C62.6358 26.7978 61.1877 23.7204 60.0929 22.2602C58.9981 20.8 58.5966 18.7347 56.8698 20.8351H56.8708Z" fill="white"/>
</g>
</mask>
<g mask="url(#mask1_80_189)">
<path id="Vector_30" d="M55.1231 23.977C56.3454 23.2754 57.834 23.1132 59.2507 23.2421C60.6674 23.371 62.039 23.7718 63.4115 24.1322C64.4185 24.3962 65.4382 24.6409 66.3819 25.0697C67.3256 25.4986 68.2029 26.1292 68.7227 27.0004L68.9686 27.4223C69.0569 27.5591 69.1611 27.6898 69.2945 27.7862C69.4279 27.8827 69.5936 27.9459 69.7607 27.9371C69.8444 27.9327 69.9273 27.9108 69.9992 27.8696C70.0711 27.8283 70.1326 27.7687 70.1713 27.6977C70.2159 27.6157 70.2296 27.5205 70.2246 27.4275C70.217 27.335 70.1992 27.2436 70.1713 27.1548C69.8276 25.9476 69.0173 24.9237 68.4004 23.8222L67.3543 21.8069C66.0714 19.5442 63.9655 17.7657 61.5728 16.612C59.1801 15.4583 56.5074 14.9036 53.8352 14.7528C50.7396 14.5782 47.6349 14.9325 44.5803 15.45C43.2555 15.6745 41.9126 15.9389 40.7399 16.5734C40.154 16.8904 39.6169 17.3 39.1976 17.8056C38.7783 18.3112 38.4801 18.9172 38.3836 19.5583C38.2908 20.1765 38.3882 20.8124 38.6112 21.3982C38.8343 21.984 39.1839 22.5199 39.5932 23.004C40.4112 23.9722 41.4596 24.729 42.4257 25.5604C43.3917 26.3918 44.2921 27.3109 45.3678 27.9998C45.9077 28.344 46.4936 28.629 47.1173 28.7965C47.741 28.964 48.4056 29.0114 49.0402 28.886C49.698 28.7562 50.3071 28.4453 50.8402 28.052C51.3733 27.6586 51.8354 27.1837 52.2733 26.6935C53.1496 25.713 53.9681 24.6387 55.1217 23.9766L55.1231 23.977Z" fill="url(#paint13_radial_80_189)"/>
</g>
</g>
</g>
<path id="Vector_31" d="M98.238 66.0389C101.008 68.1854 102.766 71.4263 103.309 74.8102C103.734 77.4499 103.458 80.1577 102.84 82.761C102.223 85.3644 101.269 87.8809 100.322 90.3909C99.9443 91.392 99.5655 92.4023 99.4153 93.4573C99.2651 94.5123 99.3607 95.6296 99.8887 96.5654C100.494 97.638 101.625 98.3764 102.84 98.7241C104.039 99.0675 105.334 99.06 106.549 98.7688C107.763 98.4777 108.896 97.9081 109.885 97.1683C112.396 95.2902 113.911 92.3668 114.497 89.3578C115.084 86.3488 114.814 83.2407 114.27 80.2239C113.526 76.1108 112.275 72.0898 110.682 68.2055C109.511 65.3487 108.14 62.5401 106.226 60.0846C104.351 57.6816 101.989 55.6588 100.153 53.2286C98.8767 51.5404 97.8547 49.6549 96.3261 48.1745C95.5613 47.4343 94.669 46.8011 93.6584 46.4227C92.6478 46.0443 91.5129 45.9333 90.4695 46.2166C89.0947 46.5893 87.9657 47.633 87.3725 48.8836C86.7793 50.1342 86.6701 51.5685 86.9027 52.9265C87.2032 54.6783 88.0344 56.3043 88.9722 57.8333C90.0315 59.5597 91.2584 61.2216 92.8581 62.5051C94.5274 63.8447 96.5464 64.7282 98.239 66.0394L98.238 66.0389Z" fill="#020204"/>
<g id="Clip path group_3">
<mask id="mask2_80_189" style="mask-type:luminance" maskUnits="userSpaceOnUse" x="86" y="46" width="29" height="53">
<g id="f">
<path id="Vector_32" d="M98.2381 66.039C101.026 68.1977 102.769 71.4399 103.31 74.8102C104.156 80.0854 102.222 85.3671 100.322 90.3914C99.9436 91.3934 99.5622 92.4085 99.4116 93.4587C99.261 94.5089 99.356 95.6284 99.889 96.5659C100.493 97.6292 101.619 98.3747 102.84 98.7246C104.04 99.0684 105.34 99.0579 106.554 98.7649C107.769 98.472 108.9 97.902 109.885 97.1688C112.425 95.2833 113.944 92.3515 114.52 89.3442C115.096 86.337 114.817 83.236 114.265 80.2244C113.513 76.1156 112.268 72.0946 110.678 68.206C109.511 65.3527 108.144 62.545 106.22 60.085C104.345 57.6865 101.974 55.6562 100.148 53.2291C98.8814 51.5435 97.8766 49.6641 96.3509 48.1829C95.588 47.4418 94.6931 46.8082 93.6767 46.4289C92.6603 46.0496 91.5151 45.936 90.4635 46.2175C89.766 46.4043 89.1232 46.76 88.5921 47.2261C88.0609 47.6922 87.6406 48.268 87.344 48.8937C86.7507 50.1447 86.6594 51.5738 86.8967 52.927C87.2026 54.6735 88.0294 56.3004 88.9666 57.8338C90.0205 59.558 91.2459 61.219 92.8522 62.5055C94.5207 63.8417 96.5423 64.7305 98.233 66.0398" fill="white"/>
</g>
</mask>
<g mask="url(#mask2_80_189)">
<g id="Vector_33" filter="url(#filter15_f_80_189)">
<path d="M91.7188 61.9031L92.4139 62.506C94.1135 63.8456 95.0186 65.3497 96.7418 66.6617C99.5619 68.8081 102.424 72.513 102.977 75.8964C103.409 78.5362 102.838 79.9701 102.141 83.0825C101.443 86.195 99.4664 90.6019 98.3986 93.603C97.9722 94.8001 99.2607 94.3059 99.092 95.5674C99.0072 96.1871 99.0018 96.8141 99.0757 97.435L99.1082 97.0746C99.3135 95.3543 99.8604 93.7003 100.457 92.0779C101.603 88.9549 102.92 85.8951 103.827 82.6905C104.735 79.486 104.634 77.1812 104.161 74.4275C103.565 70.9651 101.474 67.768 98.5126 65.6575C96.4178 64.1653 93.9489 63.2085 91.7201 61.9031H91.7188Z" fill="#838384"/>
</g>
</g>
</g>
<g id="Vector_34" opacity="0.25" filter="url(#filter16_f_80_189)">
<path d="M48.5335 59.9627C48.9959 60.6309 48.2461 62.9348 59.0242 61.4601C59.0242 61.4601 57.1314 61.6605 55.2654 62.0758C52.3648 63.0111 49.8372 64.0565 47.8877 65.4413C45.956 66.8103 44.542 68.5971 42.7695 70.1319C42.7695 70.1319 45.6397 65.0804 46.3549 63.5601C47.0701 62.0398 46.2351 62.1131 46.8015 59.8706C47.368 57.6281 48.7526 55.4825 48.7526 55.4825C48.7526 55.4825 47.6218 58.6441 48.5335 59.9622V59.9627Z" fill="url(#paint14_radial_80_189)"/>
</g>
<g id="Vector_35" opacity="0.42" filter="url(#filter17_f_80_189)">
<path d="M83.1916 59.3597C80.9951 60.8331 79.7081 60.659 77.0427 60.9471C74.3773 61.2352 67.165 61.1313 67.165 61.1313C67.165 61.1313 68.2093 61.1124 70.5238 61.5277C72.8382 61.9429 77.5585 62.3398 80.2166 63.3146C82.8747 64.2893 83.8439 64.5674 85.4596 65.5509C87.7585 66.9515 89.4465 69.1453 91.6448 70.68C91.6448 70.68 91.7513 68.6436 90.8636 67.1229C89.9759 65.6022 87.586 63.2049 86.8885 60.9664C86.1911 58.7279 85.8533 54.3311 85.8533 54.3311C85.8533 54.3311 85.389 57.8851 83.192 59.3589L83.1916 59.3597Z" fill="url(#paint15_radial_80_189)"/>
</g>
<g id="Vector_36" opacity="0.2" filter="url(#filter18_f_80_189)">
<path d="M62.5339 56.2123L62.2166 58.1171C62.1528 58.4284 62.0823 58.7398 61.9616 59.0349C61.841 59.33 61.6685 59.6102 61.4245 59.8224C61.2105 60.0083 60.9492 60.1364 60.687 60.2522C59.6636 60.7038 58.5683 61.0033 57.4512 61.1379L58.7873 61.2554C59.0673 61.2848 59.3481 61.3177 59.6213 61.3852C59.8944 61.4528 60.1607 61.5606 60.3879 61.7163C60.6374 61.8917 60.8331 62.132 60.9797 62.3942C61.271 62.9169 61.3685 63.5181 61.4226 64.1044C61.4909 64.8599 61.4964 65.6216 61.4377 66.3775C61.4905 65.8715 61.6006 65.3707 61.7654 64.8875C62.0627 64.0167 62.5412 63.2002 63.1858 62.5258C63.4416 62.2583 63.7229 62.0127 64.0325 61.8031C64.9919 61.1586 66.167 60.8831 67.3266 61.0309C66.1505 61.0771 64.9939 60.7313 64.0516 60.0518C63.5773 59.7075 63.1639 59.2787 62.8771 58.7779C62.4317 57.9931 62.3096 57.0755 62.5352 56.2079L62.5339 56.2123Z" fill="url(#paint16_radial_80_189)"/>
</g>
<g id="Vector_37" opacity="0.1" filter="url(#filter19_f_80_189)">
<path d="M59.7245 71.1387C59.1645 73.1918 58.7799 75.2856 58.5746 77.3991C58.2846 80.3862 58.3543 83.3942 58.1876 86.3905C58.0511 88.9329 57.737 91.5016 58.1949 94.009C58.4134 95.2048 58.8063 96.3703 59.3581 97.4621C59.4456 97.0454 59.5098 96.6244 59.5502 96.201C59.7445 94.1681 59.389 92.1287 59.2688 90.0905C59.0585 86.5181 59.572 82.943 59.781 79.3745C59.9415 76.631 59.9225 73.8804 59.7241 71.1391L59.7245 71.1387Z" fill="black"/>
</g>
<g id="Vector_38" filter="url(#filter20_f_80_189)">
<path d="M85.3035 40.3483C84.3193 41.2122 85.7651 42.5092 86.4507 44.0335C86.8768 44.9806 88.0563 46.3158 89.1967 46.1023C90.0548 45.9413 90.587 44.7517 90.506 43.9142C90.3494 42.2961 88.9322 41.9177 87.9034 41.3621C87.0885 40.9219 85.9946 39.7423 85.304 40.3492L85.3035 40.3483Z" fill="#838384"/>
</g>
<g id="Group_5">
<g id="Vector_39" opacity="0.2" filter="url(#filter21_f_80_189)">
<path d="M116.882 111.065C116.665 111.75 116.343 112.402 115.924 112.999C114.998 114.32 113.655 115.314 112.311 116.231C110.021 117.794 107.635 119.229 105.504 121.01C104.075 122.201 102.774 123.536 101.566 124.941C100.534 126.143 99.5635 127.406 98.3874 128.474C97.2 129.553 95.8022 130.424 94.296 130.899C92.4645 131.477 90.5291 131.449 88.7649 131.013C87.5284 130.708 86.3228 130.177 85.5571 129.217C84.7881 128.253 84.5389 126.958 84.4501 125.686C84.2926 123.437 84.5717 121.139 84.8255 118.856C85.0368 116.96 85.2313 115.061 85.3117 113.168C85.4519 109.725 85.2196 106.312 84.7358 102.963C84.6549 102.402 84.5665 101.837 84.6156 101.259C84.6647 100.681 84.8657 100.08 85.2869 99.6345C85.6758 99.2223 86.2186 98.9785 86.7594 98.8583C87.3003 98.7382 87.8486 98.7268 88.3923 98.718C89.6732 98.6851 90.9615 98.6128 92.2233 98.7206C93.0194 98.789 93.8 98.9289 94.5947 99.0026C95.9214 99.1254 97.2967 99.0609 98.6276 98.6851C100.06 98.2808 101.426 97.5222 102.882 97.3139C103.479 97.2284 104.078 97.2381 104.658 97.3166C105.25 97.3964 105.84 97.5542 106.295 97.9024C106.641 98.1672 106.894 98.5308 107.093 98.9184C107.387 99.4959 107.569 100.133 107.672 100.786C107.764 101.365 107.797 101.962 107.952 102.522C108.207 103.442 108.784 104.226 109.479 104.863C110.174 105.501 110.987 106.004 111.798 106.5C112.606 106.995 113.419 107.486 114.282 107.893C114.688 108.084 115.104 108.257 115.491 108.478C115.878 108.698 116.239 108.969 116.496 109.326C116.845 109.811 116.985 110.446 116.881 111.069" fill="url(#paint17_linear_80_189)"/>
</g>
<g id="Group_6">
<g id="Clip path group_4">
<mask id="mask3_80_189" style="mask-type:luminance" maskUnits="userSpaceOnUse" x="86" y="92" width="41" height="40">
<g id="T">
<path id="Vector_40" d="M125.963 112.707C126.378 113.407 125.249 114.192 124.682 114.784C123.433 116.088 121.745 116.934 120.177 117.862C117.484 119.456 114.431 120.451 111.791 122.123C110.023 123.243 108.455 124.632 106.847 125.957C105.472 127.09 104.352 128.533 102.827 129.473C101.302 130.412 99.62 131.294 97.8236 131.512C95.6462 131.775 93.3296 131.399 91.3138 130.563C89.9048 129.978 88.5095 129.081 87.6887 127.831C86.8634 126.575 86.751 124.964 86.6722 123.479C86.5325 120.822 87.2927 118.191 87.6637 115.554C87.9733 113.361 88.5073 111.194 88.6925 108.988C89.0294 104.979 88.3375 100.916 88.8382 96.9233C88.9998 95.6354 88.7563 94.0029 89.7541 93.1329C90.6819 92.3239 92.2261 92.6418 93.478 92.6668C95.0007 92.6975 96.4971 93.0834 97.9802 93.4197C98.9162 93.6315 99.8003 94.038 100.744 94.2134C102.31 94.5041 103.916 94.6808 105.509 94.6308C107.232 94.5764 108.895 93.8433 110.619 93.8569C111.325 93.8626 112.041 93.9805 112.707 94.2077C113.382 94.4379 114.067 94.7365 114.584 95.214C114.977 95.578 115.235 96.0722 115.439 96.5602C115.745 97.289 115.846 98.0853 115.971 98.8623C116.081 99.5525 115.901 100.296 116.159 100.95C116.992 103.054 118.698 104.776 120.359 106.362C121.152 107.21 122.193 107.912 123.166 108.479C124.199 109.082 125.155 109.553 125.653 110.591C125.953 111.242 125.405 112.24 125.964 112.707L125.963 112.707Z" fill="white"/>
</g>
</mask>
<g mask="url(#mask3_80_189)">
<path id="Vector_41" d="M125.963 112.707C125.658 113.461 125.223 114.166 124.681 114.784C123.487 116.15 121.828 117.051 120.176 117.862C117.358 119.246 114.439 120.459 111.791 122.123C110.016 123.238 108.378 124.547 106.847 125.957C105.537 127.163 104.295 128.45 102.826 129.473C101.344 130.503 99.6306 131.25 97.8233 131.512C95.6245 131.83 93.3529 131.418 91.3135 130.563C89.8849 129.963 88.511 129.106 87.6884 127.831C86.8626 126.551 86.6742 124.986 86.6719 123.479C86.6683 120.814 87.1808 118.173 87.6634 115.554C88.064 113.374 88.4464 111.189 88.6922 108.988C89.1397 104.984 89.1365 100.94 88.8379 96.9233C88.7924 96.2507 88.7296 95.5715 88.8343 94.9045C88.939 94.2375 89.2235 93.5728 89.7538 93.133C90.2441 92.7265 90.901 92.5471 91.5475 92.5129C92.1939 92.4787 92.8376 92.5774 93.4776 92.6673C94.9858 92.8795 96.5059 93.0466 97.9799 93.4202C98.91 93.6556 99.8159 93.9727 100.744 94.2139C102.293 94.6173 103.915 94.8102 105.509 94.6313C107.225 94.4384 108.891 93.817 110.619 93.8574C111.327 93.874 112.03 94.0029 112.706 94.2082C113.396 94.4178 114.077 94.7177 114.583 95.2145C114.968 95.5916 115.237 96.0674 115.439 96.5607C115.74 97.2947 115.901 98.0766 115.97 98.8628C116.032 99.5591 116.022 100.263 116.159 100.95C116.384 102.079 117 103.109 117.765 103.991C118.53 104.873 119.449 105.622 120.358 106.362C121.268 107.099 122.183 107.834 123.165 108.48C123.626 108.783 124.101 109.067 124.539 109.4C124.976 109.734 125.379 110.123 125.652 110.591C126.023 111.227 126.136 111.998 125.963 112.707L125.963 112.707Z" fill="url(#paint18_linear_80_189)"/>
</g>
</g>
<g id="Clip path group_5">
<mask id="mask4_80_189" style="mask-type:luminance" maskUnits="userSpaceOnUse" x="86" y="92" width="41" height="40">
<g id="U">
<path id="Vector_42" d="M125.963 112.707C126.378 113.407 125.249 114.192 124.682 114.784C123.433 116.088 121.745 116.934 120.177 117.862C117.484 119.456 114.431 120.451 111.791 122.123C110.023 123.243 108.455 124.632 106.847 125.957C105.472 127.09 104.352 128.533 102.827 129.473C101.302 130.412 99.62 131.294 97.8236 131.512C95.6462 131.775 93.3296 131.399 91.3138 130.563C89.9048 129.978 88.5095 129.081 87.6887 127.831C86.8634 126.575 86.751 124.964 86.6722 123.479C86.5325 120.822 87.2927 118.191 87.6637 115.554C87.9733 113.361 88.5073 111.194 88.6925 108.988C89.0294 104.979 88.3375 100.916 88.8382 96.9233C88.9998 95.6354 88.7563 94.0029 89.7541 93.1329C90.6819 92.3239 92.2261 92.6418 93.478 92.6668C95.0007 92.6975 96.4971 93.0834 97.9802 93.4197C98.9162 93.6315 99.8003 94.038 100.744 94.2134C102.31 94.5041 103.916 94.6808 105.509 94.6308C107.232 94.5764 108.895 93.8433 110.619 93.8569C111.325 93.8626 112.041 93.9805 112.707 94.2077C113.382 94.4379 114.067 94.7365 114.584 95.214C114.977 95.578 115.235 96.0722 115.439 96.5602C115.745 97.289 115.846 98.0853 115.971 98.8623C116.081 99.5525 115.901 100.296 116.159 100.95C116.992 103.054 118.698 104.776 120.359 106.362C121.152 107.21 122.193 107.912 123.166 108.479C124.199 109.082 125.155 109.553 125.653 110.591C125.953 111.242 125.405 112.24 125.964 112.707L125.963 112.707Z" fill="white"/>
</g>
</mask>
<g mask="url(#mask4_80_189)">
<g id="Vector_43" filter="url(#filter22_f_80_189)">
<path d="M124.545 111.324C124.263 112.004 123.868 112.635 123.374 113.192C122.281 114.426 120.766 115.233 119.26 115.959C116.686 117.2 114.023 118.291 111.603 119.79C109.985 120.791 108.489 121.967 107.088 123.236C105.891 124.321 104.755 125.48 103.416 126.397C102.059 127.327 100.494 127.996 98.8467 128.23C96.8392 128.515 94.7678 128.145 92.9023 127.377C91.6017 126.841 90.3452 126.074 89.5918 124.921C88.8425 123.773 88.6677 122.365 88.6631 121.009C88.6572 118.612 89.1266 116.242 89.5691 113.884C89.9364 111.924 90.286 109.96 90.5087 107.98C90.9138 104.381 90.8947 100.746 90.6416 97.1342C90.5992 96.5291 90.5505 95.9178 90.6471 95.3189C90.7436 94.7199 91.0012 94.1231 91.4783 93.7271C91.9258 93.3557 92.5267 93.193 93.1172 93.1632C93.7076 93.1334 94.2948 93.2255 94.8789 93.3079C96.2551 93.503 97.6431 93.6499 98.9897 93.9845C99.8387 94.1959 100.667 94.4809 101.514 94.6984C102.93 95.0623 104.41 95.2355 105.866 95.0737C107.432 94.8997 108.956 94.3414 110.532 94.3778C111.179 94.3932 111.82 94.5094 112.44 94.6936C113.069 94.8804 113.691 95.147 114.154 95.5982C114.502 95.938 114.743 96.3673 114.935 96.8084C115.22 97.4649 115.405 98.1665 115.42 98.8781C115.436 99.621 115.267 100.367 115.372 101.103C115.456 101.7 115.719 102.264 116.055 102.773C116.39 103.283 116.798 103.742 117.203 104.203C117.985 105.093 118.769 105.999 119.749 106.683C120.866 107.46 122.19 107.915 123.343 108.641C123.687 108.858 124.02 109.103 124.262 109.422C124.464 109.694 124.596 110.009 124.645 110.34C124.694 110.671 124.66 111.009 124.546 111.324H124.545Z" fill="#CD8907"/>
</g>
</g>
</g>
</g>
<g id="Clip path group_6">
<mask id="mask5_80_189" style="mask-type:luminance" maskUnits="userSpaceOnUse" x="86" y="92" width="41" height="40">
<g id="W">
<path id="Vector_44" d="M125.964 112.707C126.377 113.407 125.249 114.193 124.681 114.784C123.433 116.088 121.745 116.934 120.176 117.863C117.483 119.457 114.431 120.456 111.79 122.123C110.023 123.243 108.455 124.633 106.846 125.957C105.47 127.09 104.351 128.534 102.825 129.472C101.299 130.41 99.6182 131.293 97.8215 131.512C95.644 131.775 93.3275 131.399 91.3175 130.563C89.9085 129.978 88.5078 129.08 87.6924 127.831C86.8672 126.575 86.7543 124.965 86.6763 123.48C86.5358 120.822 87.2965 118.191 87.668 115.555C87.9771 113.361 88.5109 111.194 88.6967 108.988C89.0333 104.98 88.3418 100.916 88.8424 96.9236C88.9985 95.636 88.7601 94.0035 89.7581 93.1335C90.6858 92.3246 92.2296 92.6472 93.4815 92.6678C95.0045 92.6991 96.501 93.0849 97.9833 93.4205C98.9199 93.6323 99.8034 94.0392 100.748 94.2148C102.309 94.5055 103.919 94.6822 105.513 94.632C107.236 94.5779 108.898 93.8441 110.622 93.8582C111.329 93.8636 112.044 93.9825 112.71 94.2094C113.385 94.4396 114.071 94.739 114.587 95.2156C114.981 95.5798 115.238 96.0737 115.443 96.5665C115.749 97.296 115.85 98.0914 115.973 98.8684C116.084 99.5585 115.904 100.303 116.162 100.955C116.995 103.06 118.701 104.782 120.361 106.368C121.155 107.216 122.196 107.917 123.169 108.485C124.202 109.087 125.157 109.559 125.656 110.596C125.956 111.248 125.408 112.246 125.967 112.713L125.964 112.707Z" fill="white"/>
</g>
</mask>
<g mask="url(#mask5_80_189)">
<g id="Vector_45" filter="url(#filter23_f_80_189)">
<path d="M124.385 110.559C124.072 111.242 123.666 111.879 123.183 112.444C122.063 113.756 120.55 114.66 118.956 115.239C116.333 116.194 113.469 116.322 110.894 117.409C109.325 118.072 107.913 119.07 106.482 120.014C105.326 120.776 104.144 121.511 102.875 122.043C101.441 122.646 99.9163 122.984 98.3866 123.221C97.4136 123.373 96.4286 123.483 95.4457 123.431C94.4629 123.378 93.4769 123.157 92.61 122.674C91.9523 122.308 91.3612 121.781 91.0095 121.097C90.6193 120.338 90.5516 119.446 90.561 118.585C90.5849 116.29 91.0948 114.021 91.0792 111.726C91.0657 109.729 90.6552 107.757 90.5371 105.764C90.3097 101.93 91.164 98.0297 90.4122 94.2688C90.2925 93.6668 90.1302 93.0654 90.138 92.4505C90.1421 92.1425 90.19 91.8345 90.3019 91.5497C90.4137 91.2649 90.5948 91.0066 90.8352 90.8267C91.0381 90.6754 91.2775 90.5835 91.5236 90.5419C91.7697 90.5003 92.0215 90.5084 92.2687 90.5457C92.7619 90.6197 93.2323 90.8061 93.7126 90.9439C95.0873 91.3384 96.5395 91.3297 97.936 91.6275C98.8127 91.8145 99.6619 92.1192 100.529 92.3483C101.986 92.7266 103.506 92.8957 105 92.7266C106.608 92.5456 108.177 91.9836 109.794 92.0241C110.456 92.0403 111.114 92.1592 111.753 92.3429C112.392 92.5267 113.03 92.786 113.513 93.2561C113.862 93.5955 114.112 94.0289 114.316 94.4774C114.612 95.1323 114.819 95.8445 114.814 96.5675C114.812 96.9441 114.752 97.3175 114.717 97.6914C114.682 98.0654 114.671 98.4501 114.764 98.8138C114.856 99.1774 115.052 99.5092 115.275 99.808C115.498 100.107 115.751 100.381 115.982 100.674C116.628 101.493 117.09 102.449 117.593 103.37C118.096 104.291 118.661 105.204 119.456 105.867C120.538 106.77 121.942 107.131 123.148 107.844C123.502 108.053 123.844 108.298 124.092 108.633C124.291 108.903 124.422 109.22 124.473 109.556C124.524 109.891 124.493 110.235 124.384 110.555L124.385 110.559Z" fill="#F5C021"/>
</g>
</g>
</g>
<g id="Vector_46" filter="url(#filter24_f_80_189)">
<path d="M90.1391 94.6291C91.6305 94.2402 92.9006 95.3294 93.9822 96.1516C94.681 96.726 95.6907 96.5813 96.5484 96.6085C97.9687 96.5589 99.3822 96.8378 100.803 96.6681C103.601 96.4401 106.343 95.778 109.153 95.6596C110.496 95.578 112.003 95.503 113.163 96.2581C113.633 96.5721 114.323 97.8981 114.786 97.4004C114.595 96.0069 113.522 94.6572 112.082 94.2862C110.956 94.1152 109.806 94.4134 108.673 94.3169C105.293 94.2393 101.938 93.635 98.551 93.8082C96.1947 93.828 93.8407 93.7227 91.488 93.6342C90.5639 93.4522 90.2375 94.2437 89.7354 94.5462" fill="url(#paint19_linear_80_189)"/>
</g>
</g>
<g id="Group_7">
<g id="Vector_47" opacity="0.75" filter="url(#filter25_f_80_189)">
<path d="M96.8251 68.132C97.3657 68.0514 100.702 70.7839 100.246 71.8034C99.7902 72.8229 98.9331 72.2066 98.32 72.2134C97.707 72.2202 96.03 72.9535 95.7491 72.4909C95.4681 72.0282 96.4908 70.9474 97.026 70.0445C97.457 69.3171 96.2844 68.2176 96.8253 68.137L96.8251 68.132Z" fill="#7C7C7C"/>
</g>
<g id="Vector_48" opacity="0.25" filter="url(#filter26_f_80_189)">
<path d="M49.7427 50.9343C49.6887 50.3047 48.7555 50.2105 48.3393 50.5243C47.9878 50.7898 47.6581 51.6955 47.9613 52.0499C48.4542 52.6243 49.8163 51.7979 49.7427 50.9351L49.7427 50.9343Z" fill="#7C7C7C"/>
</g>
</g>
<g id="Group_8">
<g id="Vector_49" opacity="0.35" filter="url(#filter27_f_80_189)">
<path d="M110.248 96.8172C109.992 96.334 109.525 95.9727 109.005 95.7635C108.485 95.5544 107.914 95.4873 107.351 95.4917C106.224 95.5004 105.104 95.7828 103.982 95.689C103.034 95.61 102.134 95.2667 101.205 95.0501C100.25 94.8308 99.2376 94.7431 98.2893 94.9874C97.276 95.2531 96.3819 95.9056 95.8219 96.7611C95.3285 97.5153 95.0936 98.4068 95.0207 99.2956C94.9479 100.184 95.0267 101.079 95.12 101.966C95.1874 102.608 95.2629 103.251 95.4241 103.878C95.5852 104.505 95.8356 105.116 96.228 105.638C96.7925 106.391 97.6315 106.928 98.5361 107.25C100.03 107.776 101.674 107.748 103.148 107.172C105.725 106.095 107.906 104.163 109.235 101.779C109.711 100.926 110.08 100.016 110.319 99.0755C110.414 98.7015 110.489 98.3204 110.492 97.9354C110.496 97.5504 110.425 97.1593 110.244 96.8172H110.248Z" fill="url(#paint20_radial_80_189)"/>
</g>
<g id="Vector_50" opacity="0.35" filter="url(#filter28_f_80_189)">
<path d="M110.248 96.3103C109.992 95.961 109.525 95.6997 109.005 95.5485C108.485 95.3973 107.914 95.3488 107.351 95.352C106.224 95.3583 105.104 95.5625 103.982 95.4946C103.034 95.4376 102.134 95.1894 101.205 95.0328C100.25 94.8743 99.2376 94.8109 98.2893 94.9874C97.276 95.1796 96.3819 95.6512 95.8219 96.2697C95.3285 96.815 95.0936 97.4594 95.0207 98.102C94.9479 98.7445 95.0267 99.3909 95.12 100.033C95.1874 100.497 95.2629 100.961 95.4241 101.415C95.5852 101.868 95.8356 102.31 96.228 102.687C96.7925 103.231 97.6315 103.619 98.5361 103.852C100.03 104.233 101.674 104.213 103.148 103.796C105.725 103.017 107.906 101.62 109.235 99.8972C109.711 99.2803 110.08 98.6228 110.319 97.9428C110.414 97.6724 110.489 97.397 110.492 97.1186C110.496 96.8403 110.425 96.5576 110.244 96.3103H110.248Z" fill="url(#paint21_radial_80_189)"/>
</g>
<path id="Vector_51" d="M112.389 92.2954C112.205 91.8113 111.881 91.3825 111.484 91.0369C111.087 90.6914 110.619 90.4265 110.126 90.2248C109.14 89.8214 108.068 89.6723 107.015 89.4811L104.044 88.9212C103.01 88.7519 101.941 88.644 100.918 88.8663C100.023 89.0606 99.1959 89.5066 98.5185 90.1029C97.8411 90.6993 97.3121 91.443 96.932 92.2515C96.2619 93.6679 96.0511 95.2618 96.179 96.8132C96.2746 97.9678 96.5773 99.1575 97.3672 100.032C98.0045 100.738 98.9091 101.178 99.8409 101.444C101.446 101.901 103.195 101.877 104.785 101.376C107.429 100.515 109.716 98.8578 111.308 96.6492C111.827 95.9257 112.27 95.1373 112.47 94.28C112.623 93.6223 112.629 92.9295 112.389 92.3002V92.2954Z" fill="#020204"/>
<g id="Group_9">
<g id="Clip path group_7">
<mask id="mask6_80_189" style="mask-type:luminance" maskUnits="userSpaceOnUse" x="96" y="88" width="17" height="14">
<g id="L">
<path id="Vector_52" d="M112.389 92.2954C112.205 91.8113 111.881 91.3825 111.484 91.0369C111.087 90.6914 110.619 90.4265 110.126 90.2248C109.14 89.8214 108.068 89.6723 107.015 89.4811L104.044 88.9212C103.01 88.7519 101.941 88.644 100.918 88.8663C100.023 89.0606 99.1958 89.5066 98.5185 90.1029C97.8411 90.6993 97.3121 91.443 96.932 92.2515C96.2619 93.6679 96.0511 95.2618 96.179 96.8132C96.2746 97.9678 96.5773 99.1575 97.3672 100.032C98.0045 100.738 98.909 101.178 99.8409 101.444C101.446 101.901 103.195 101.877 104.785 101.376C107.429 100.515 109.716 98.8578 111.308 96.6492C111.827 95.9257 112.27 95.1373 112.47 94.28C112.623 93.6223 112.629 92.9295 112.389 92.3002" fill="white"/>
</g>
</mask>
<g mask="url(#mask6_80_189)">
<g id="Vector_53" filter="url(#filter29_f_80_189)">
<path d="M101.479 88.4051C101.231 88.4181 100.984 88.4456 100.739 88.4875C99.1593 88.7581 97.713 89.7197 96.8981 91.0501C96.323 91.9985 96.0602 93.0927 96.1442 94.188C96.1775 93.4241 96.3855 92.6765 96.7702 92.0087C97.423 90.8765 98.6057 90.0223 99.9286 89.789C100.748 89.6452 101.582 89.732 102.404 89.8302C103.193 89.9249 103.988 90.0245 104.766 90.1867C105.968 90.4375 107.158 90.8225 108.167 91.5022C108.401 91.6601 108.622 91.8398 108.807 92.0503C108.991 92.2608 109.135 92.5055 109.191 92.7765C109.272 93.1729 109.154 93.589 108.95 93.9411C108.745 94.2932 108.465 94.6019 108.167 94.8865C107.925 95.1172 107.668 95.3399 107.413 95.5574C108.578 95.3399 109.758 95.0321 110.727 94.3792C111.136 94.1029 111.507 93.7719 111.751 93.3513C111.995 92.9308 112.098 92.4217 111.979 91.9538C111.898 91.6381 111.719 91.3478 111.495 91.1045C111.271 90.8611 111.004 90.6607 110.727 90.4743C109.507 89.6513 108.08 89.1238 106.602 88.9528C105.655 88.7848 104.699 88.6432 103.743 88.5274C102.995 88.4371 102.232 88.3639 101.48 88.4046L101.479 88.4051Z" fill="url(#paint22_radial_80_189)"/>
</g>
</g>
</g>
<g id="Clip path group_8">
<mask id="mask7_80_189" style="mask-type:luminance" maskUnits="userSpaceOnUse" x="96" y="88" width="17" height="14">
<g id="N">
<path id="Vector_54" d="M112.389 92.2954C112.205 91.8113 111.881 91.3825 111.484 91.0369C111.087 90.6914 110.619 90.4265 110.126 90.2248C109.14 89.8214 108.068 89.6723 107.015 89.4811L104.044 88.9212C103.01 88.7519 101.941 88.644 100.918 88.8663C100.023 89.0606 99.1958 89.5066 98.5185 90.1029C97.8411 90.6993 97.3121 91.443 96.932 92.2515C96.2619 93.6679 96.0511 95.2618 96.179 96.8132C96.2746 97.9678 96.5773 99.1575 97.3672 100.032C98.0045 100.738 98.909 101.178 99.8409 101.444C101.446 101.901 103.195 101.877 104.785 101.376C107.429 100.515 109.716 98.8578 111.308 96.6492C111.827 95.9257 112.27 95.1373 112.47 94.28C112.623 93.6223 112.629 92.9295 112.389 92.3002" fill="white"/>
</g>
</mask>
<g mask="url(#mask7_80_189)">
<g id="Vector_55" filter="url(#filter30_f_80_189)">
<path d="M101.479 88.4051C101.231 88.4181 100.984 88.4456 100.739 88.4875C99.1593 88.7581 97.713 89.7197 96.8981 91.0501C96.323 91.9985 96.0602 93.0927 96.1442 94.188C96.1775 93.4241 96.3855 92.6765 96.7702 92.0087C97.423 90.8765 98.6057 90.0223 99.9286 89.789C100.748 89.6452 101.582 89.732 102.404 89.8302C103.193 89.9249 103.988 90.0245 104.766 90.1867C105.968 90.4375 107.158 90.8225 108.167 91.5022C108.401 91.6601 108.622 91.8398 108.807 92.0503C108.991 92.2608 109.135 92.5055 109.191 92.7765C109.272 93.1729 109.154 93.589 108.95 93.9411C108.745 94.2932 108.465 94.6019 108.167 94.8865C107.925 95.1172 107.668 95.3399 107.413 95.5574C108.578 95.3399 109.758 95.0321 110.727 94.3792C111.136 94.1029 111.507 93.7719 111.751 93.3513C111.995 92.9308 112.098 92.4217 111.979 91.9538C111.898 91.6381 111.719 91.3478 111.495 91.1045C111.271 90.8611 111.004 90.6607 110.727 90.4743C109.507 89.6513 108.08 89.1238 106.602 88.9528C105.655 88.7848 104.699 88.6432 103.743 88.5274C102.995 88.4371 102.232 88.3639 101.48 88.4046L101.479 88.4051Z" fill="url(#paint23_linear_80_189)"/>
</g>
</g>
</g>
</g>
</g>
<path id="Vector_56" d="M49.709 48.0496L42.0055 57.3396C40.3972 59.2602 38.7506 61.1957 37.7035 63.4479C36.804 65.3829 36.3788 67.4851 35.762 69.5211C35.0618 71.8328 34.1113 74.0683 33.0442 76.2459C32.0586 78.2564 30.9729 80.22 29.8849 82.1814C29.0937 83.6082 28.2893 85.0667 28.0148 86.6628C27.7981 87.9239 27.9237 89.2254 28.2579 90.4628C28.592 91.7003 29.1228 92.879 29.7319 94.0173C32.3117 98.8737 36.1826 103.06 40.7677 106.262C42.8481 107.716 45.0774 108.972 47.4151 110.001C48.6815 110.558 50.0163 111.055 51.4084 111.078C52.1049 111.09 52.8078 110.98 53.4451 110.71C54.0824 110.44 54.6515 110.007 55.0307 109.444C55.4964 108.752 55.6544 107.893 55.561 107.073C55.4677 106.254 55.1354 105.471 54.6902 104.767C53.5976 103.046 51.8836 101.802 50.2307 100.569C46.6616 97.9055 43.2087 95.0964 39.9051 92.1322C38.9718 91.2947 38.0395 90.4317 37.3876 89.3767C36.753 88.3488 36.4098 87.178 36.1776 86.0033C35.5403 82.7803 35.7042 79.3894 36.8422 76.298C37.2875 75.0887 37.8756 73.9337 38.4438 72.7725C39.4271 70.7598 40.3589 68.7094 41.6532 66.8673C43.2638 64.5739 45.4166 62.6314 46.729 60.1679C47.8371 58.0894 48.2859 55.7513 48.7148 53.451L49.709 48.0496Z" fill="#020204"/>
<g id="Clip path group_9">
<mask id="mask8_80_189" style="mask-type:luminance" maskUnits="userSpaceOnUse" x="27" y="48" width="29" height="63">
<g id="J">
<path id="Vector_57" d="M49.5094 48.1316C49.5094 48.1316 47.185 50.9139 45.9144 52.6249C44.6439 54.3359 43.3027 55.5409 42.0053 57.3387C40.7079 59.1366 38.6525 61.4746 37.7034 63.447C36.7542 65.4194 36.6472 67.4093 35.7618 69.5202C34.8763 71.6311 34.0774 74.1867 33.044 76.245C32.0107 78.3033 30.5994 80.4919 29.8847 82.1805C29.17 83.8692 28.1503 84.6905 28.0146 86.662C27.8789 88.6334 27.7519 90.309 29.7318 94.0165C31.7116 97.724 37.5782 103.666 40.7675 106.262C43.9569 108.857 45.0422 109.43 47.4149 110C49.7876 110.571 53.7226 111.315 55.031 109.443C56.3393 107.572 56.0652 106.828 54.6895 104.766C53.3138 102.705 52.493 102.441 50.2301 100.568C47.9671 98.6957 41.7458 94.0467 39.9044 92.1318C38.063 90.2169 36.6691 90.6356 37.387 89.3763C38.1049 88.1169 36.3823 87.6179 36.177 86.0029C35.8292 83.2645 36.6067 77.803 36.8416 76.2976C37.0765 74.7923 37.3988 75.0155 38.4431 72.7721C39.4874 70.5287 40.3205 68.9905 41.6525 66.8669C42.9845 64.7432 45.5789 62.4257 46.7284 60.1675C47.8779 57.9092 48.3235 55.4668 48.7141 53.4506C49.1047 51.4344 49.5094 48.1316 49.5094 48.1316Z" fill="white"/>
</g>
</mask>
<g mask="url(#mask8_80_189)">
<g id="Vector_58" opacity="0.95" filter="url(#filter31_f_80_189)">
<path d="M42.3487 65.5216C41.2905 66.4607 40.3778 67.5414 39.6387 68.7305C38.4241 70.6862 37.7085 72.8822 36.8262 74.9966C36.1689 76.5708 35.4036 78.1507 35.3117 79.8447C35.2648 80.7146 35.3982 81.5837 35.4287 82.4546C35.4592 83.3255 35.3749 84.2305 34.9279 84.9909C34.5578 85.6267 33.9419 86.1266 33.2285 86.3695C34.1979 86.6839 35.0449 87.275 35.6572 88.0643C36.1648 88.722 36.4894 89.4912 36.93 90.191C37.2883 90.7602 37.728 91.2873 38.2698 91.7016C38.8115 92.116 39.4579 92.412 40.144 92.4966C40.616 92.5518 41.0948 92.5082 41.5477 92.3688C42.0007 92.2294 42.417 91.9975 42.7684 91.6889C41.8921 83.7802 42.6947 75.7026 45.1129 68.0977C45.2654 67.6176 45.4256 67.1339 45.4634 66.6332C45.5012 66.1324 45.4042 65.6036 45.0883 65.2045C44.9198 64.9919 44.6931 64.823 44.4373 64.7187C44.1815 64.6143 43.8974 64.5762 43.6224 64.6082C43.3475 64.6402 43.0807 64.7423 42.8576 64.902C42.6346 65.0616 42.4561 65.2778 42.3446 65.5224L42.3487 65.5216Z" fill="#7C7C7C"/>
</g>
</g>
</g>
<g id="Clip path group_10">
<mask id="mask9_80_189" style="mask-type:luminance" maskUnits="userSpaceOnUse" x="12" y="90" width="44" height="42">
<g id="F">
<path id="Vector_59" d="M31.0799 90.4063C31.8083 90.1155 32.6268 90.0625 33.4016 90.2002C34.1764 90.3378 34.9084 90.6606 35.5608 91.0868C36.8646 91.9401 37.8315 93.182 38.7579 94.4106C40.8847 97.2319 42.9324 100.112 44.7875 103.106C46.2925 105.534 47.6755 108.042 49.4145 110.321C50.5498 111.808 51.8304 113.188 52.9712 114.671C54.112 116.154 55.1236 117.765 55.6298 119.546C56.2871 121.86 56.0327 124.41 54.8891 126.542C54.0847 128.041 52.8515 129.327 51.351 130.199C49.8506 131.07 48.087 131.52 46.3362 131.457C43.5529 131.356 41.0099 130.017 38.4224 129.023C33.1508 127.001 27.4239 126.366 21.9898 124.791C20.3191 124.307 18.6775 123.734 16.9959 123.289C16.2493 123.091 15.489 122.917 14.7834 122.609C14.0778 122.301 13.4177 121.842 13.0253 121.198C12.7221 120.701 12.5937 120.115 12.6019 119.538C12.6101 118.961 12.7503 118.392 12.9543 117.849C13.3622 116.764 14.0209 115.782 14.4657 114.711C15.1918 112.961 15.3224 111.033 15.2245 109.151C15.1267 107.269 14.8103 105.404 14.676 103.525C14.6168 102.686 14.594 101.835 14.7602 101.01C14.9264 100.184 15.2956 99.3762 15.9247 98.793C16.5047 98.2549 17.2745 97.9357 18.0625 97.777C18.8505 97.6182 19.6626 97.6117 20.4679 97.6288C21.2732 97.6459 22.0795 97.6875 22.8825 97.6244C23.6855 97.5612 24.4908 97.3876 25.1905 97.0026C25.8552 96.6369 26.3987 96.0927 26.8494 95.4968C27.3001 94.9009 27.6643 94.2488 28.0376 93.6051C28.4109 92.9614 28.7969 92.3194 29.2858 91.752C29.7747 91.1846 30.3738 90.6895 31.0808 90.4071" fill="white"/>
</g>
</mask>
<g mask="url(#mask9_80_189)">
<g id="Group_10">
<path id="Vector_60" d="M31.0799 90.4063C31.8083 90.1155 32.6268 90.0625 33.4016 90.2002C34.1764 90.3378 34.9084 90.6606 35.5608 91.0868C36.8646 91.9401 37.8315 93.182 38.7579 94.4106C40.8847 97.2319 42.9324 100.112 44.7875 103.106C46.2925 105.534 47.6755 108.042 49.4145 110.321C50.5498 111.808 51.8304 113.188 52.9712 114.671C54.112 116.154 55.1236 117.765 55.6298 119.546C56.2871 121.86 56.0327 124.41 54.8891 126.542C54.0847 128.041 52.8515 129.327 51.351 130.199C49.8506 131.07 48.087 131.52 46.3362 131.457C43.5529 131.356 41.0099 130.017 38.4224 129.023C33.1508 127.001 27.4239 126.366 21.9898 124.791C20.3191 124.307 18.6775 123.734 16.9959 123.289C16.2493 123.091 15.489 122.917 14.7834 122.609C14.0778 122.301 13.4177 121.842 13.0253 121.198C12.7221 120.701 12.5937 120.115 12.6019 119.538C12.6101 118.961 12.7503 118.392 12.9543 117.849C13.3622 116.764 14.0209 115.782 14.4657 114.711C15.1918 112.961 15.3224 111.033 15.2245 109.151C15.1267 107.269 14.8103 105.404 14.676 103.525C14.6168 102.686 14.594 101.835 14.7602 101.01C14.9264 100.184 15.2956 99.3762 15.9247 98.793C16.5047 98.2549 17.2745 97.9357 18.0625 97.777C18.8505 97.6182 19.6626 97.6117 20.4679 97.6288C21.2732 97.6459 22.0795 97.6875 22.8825 97.6244C23.6855 97.5612 24.4908 97.3876 25.1905 97.0026C25.8552 96.6369 26.3987 96.0927 26.8494 95.4968C27.3001 94.9009 27.6643 94.2488 28.0376 93.6051C28.4109 92.9614 28.7969 92.3194 29.2858 91.752C29.7747 91.1846 30.3738 90.6895 31.0808 90.4071L31.0799 90.4063Z" fill="url(#paint24_linear_80_189)"/>
<g id="Vector_61" filter="url(#filter32_f_80_189)">
<path d="M32.228 91.6165C32.8904 91.3596 33.6365 91.3315 34.3326 91.4833C35.0286 91.635 35.6755 91.9656 36.2391 92.3809C37.3672 93.2201 38.1511 94.4041 38.904 95.5687C40.7113 98.3896 42.4776 101.24 44.1465 104.149C45.4107 106.338 46.6162 108.575 48.1694 110.586C49.2001 111.92 50.3759 113.142 51.428 114.461C52.48 115.78 53.4174 117.216 53.8831 118.817C54.4822 120.88 54.2395 123.158 53.2025 125.058C52.4516 126.428 51.3187 127.569 49.9312 128.352C48.5401 129.131 46.9466 129.509 45.3392 129.443C42.7908 129.33 40.4637 128.104 38.0646 127.273C33.4654 125.665 28.4805 125.449 23.7629 124.194C22.0717 123.752 20.4229 123.163 18.7235 122.75C17.9714 122.567 17.2062 122.418 16.4919 122.127C15.7777 121.837 15.1048 121.386 14.7174 120.739C14.4293 120.258 14.3141 119.692 14.3318 119.137C14.3496 118.582 14.4957 118.041 14.696 117.517C15.1067 116.479 15.7522 115.544 16.1664 114.503C16.7947 112.935 16.8721 111.212 16.7555 109.536C16.639 107.86 16.3367 106.199 16.2306 104.522C16.1833 103.773 16.176 103.014 16.3335 102.279C16.491 101.544 16.8233 100.832 17.3783 100.301C17.9792 99.7261 18.8077 99.413 19.644 99.2903C20.4802 99.1675 21.3311 99.221 22.1728 99.2933C23.0145 99.3657 23.8594 99.4569 24.7039 99.4082C25.5484 99.3596 26.4047 99.1613 27.103 98.7035C27.739 98.2892 28.2165 97.6845 28.5798 97.0381C28.9431 96.3918 29.2025 95.6985 29.4793 95.0136C29.7561 94.3287 30.0561 93.6446 30.4908 93.0404C30.9256 92.4361 31.5087 91.8981 32.2235 91.6218" fill="#D99A03"/>
</g>
<g id="Vector_62" filter="url(#filter33_f_80_189)">
<path d="M31.6149 90.0227C32.2567 89.7161 33.0124 89.6532 33.7162 89.7914C34.42 89.9297 35.0719 90.2608 35.6264 90.694C36.7349 91.5553 37.4382 92.7933 38.0938 94.0034C39.5983 96.7831 40.9995 99.623 42.8 102.24C44.1065 104.135 45.6133 105.908 46.9344 107.798C48.7262 110.36 50.183 113.179 50.7839 116.198C51.1881 118.229 51.1754 120.418 50.1593 122.252C49.4901 123.456 48.4066 124.448 47.1261 125.061C45.8455 125.675 44.3751 125.93 42.9425 125.808C40.6872 125.616 38.6387 124.549 36.5159 123.804C32.7488 122.482 28.6777 122.166 24.8009 121.168C23.1657 120.747 21.5687 120.206 19.9071 119.876C19.176 119.729 18.4304 119.622 17.7325 119.368C17.0346 119.114 16.3732 118.694 16.0162 118.072C15.7659 117.634 15.6807 117.122 15.7185 116.626C15.7563 116.13 15.9097 115.647 16.1123 115.187C16.5165 114.268 17.1138 113.426 17.4325 112.476C17.8936 111.08 17.7043 109.566 17.3578 108.14C17.0114 106.715 16.5125 105.315 16.359 103.86C16.2908 103.212 16.2921 102.551 16.4455 101.916C16.5989 101.281 16.9131 100.67 17.4061 100.215C18.0402 99.6282 18.9284 99.3363 19.8111 99.2544C20.6938 99.1726 21.5829 99.2846 22.4605 99.4052C23.3382 99.5257 24.2214 99.6635 25.1077 99.6205C25.9941 99.5774 26.8959 99.3578 27.5901 98.835C28.2766 98.3183 28.7082 97.5487 28.9558 96.7525C29.2035 95.9563 29.2836 95.1239 29.3851 94.2996C29.4866 93.4754 29.6127 92.6435 29.9451 91.8752C30.2774 91.107 30.8373 90.399 31.6203 90.0248L31.6149 90.0227Z" fill="#F5BD0C"/>
</g>
<g id="Vector_63" filter="url(#filter34_f_80_189)">
<path d="M39.6523 96.9618C40.8387 99.0284 41.5625 101.4 42.7388 103.484C43.8214 105.402 45.0532 107.376 46.1531 109.144C46.6425 109.931 47.7842 111.141 48.9391 113.019C49.9853 114.72 51.0414 117.095 51.6328 117.893C51.2931 116.959 50.5948 114.452 49.7617 112.665C48.9878 110.994 48.0774 110.042 47.5188 109.144C46.4189 107.376 45.2349 105.787 44.1045 104.101C42.5454 101.776 41.3567 99.1745 39.6523 96.9622V96.9618Z" fill="url(#paint25_linear_80_189)"/>
</g>
</g>
</g>
</g>
</g>
</g>
<defs>
<filter id="filter0_f_80_189" x="52.3093" y="36.4866" width="30.8638" height="18.328" filterUnits="userSpaceOnUse" color-interpolation-filters="sRGB">
<feFlood flood-opacity="0" result="BackgroundImageFix"/>
<feBlend mode="normal" in="SourceGraphic" in2="BackgroundImageFix" result="shape"/>
<feGaussianBlur stdDeviation="0.436168" result="effect1_foregroundBlur_80_189"/>
</filter>
<filter id="filter1_f_80_189" x="52.5455" y="35.7523" width="28.6347" height="12.9642" filterUnits="userSpaceOnUse" color-interpolation-filters="sRGB">
<feFlood flood-opacity="0" result="BackgroundImageFix"/>
<feBlend mode="normal" in="SourceGraphic" in2="BackgroundImageFix" result="shape"/>
<feGaussianBlur stdDeviation="0.191623" result="effect1_foregroundBlur_80_189"/>
</filter>
<filter id="filter2_f_80_189" x="52.3886" y="28.6945" width="28.6135" height="14.5017" filterUnits="userSpaceOnUse" color-interpolation-filters="sRGB">
<feFlood flood-opacity="0" result="BackgroundImageFix"/>
<feBlend mode="normal" in="SourceGraphic" in2="BackgroundImageFix" result="shape"/>
<feGaussianBlur stdDeviation="0.291564" result="effect1_foregroundBlur_80_189"/>
</filter>
<filter id="filter3_f_80_189" x="74.3158" y="6.07997" width="9.21701" height="8.56393" filterUnits="userSpaceOnUse" color-interpolation-filters="sRGB">
<feFlood flood-opacity="0" result="BackgroundImageFix"/>
<feBlend mode="normal" in="SourceGraphic" in2="BackgroundImageFix" result="shape"/>
<feGaussianBlur stdDeviation="0.429496" result="effect1_foregroundBlur_80_189"/>
</filter>
<filter id="filter4_f_80_189" x="73.9421" y="27.3181" width="1.93505" height="1.46618" filterUnits="userSpaceOnUse" color-interpolation-filters="sRGB">
<feFlood flood-opacity="0" result="BackgroundImageFix"/>
<feBlend mode="normal" in="SourceGraphic" in2="BackgroundImageFix" result="shape"/>
<feGaussianBlur stdDeviation="0.0533428" result="effect1_foregroundBlur_80_189"/>
</filter>
<filter id="filter5_f_80_189" x="73.8401" y="25.3058" width="3.62052" height="3.45987" filterUnits="userSpaceOnUse" color-interpolation-filters="sRGB">
<feFlood flood-opacity="0" result="BackgroundImageFix"/>
<feBlend mode="normal" in="SourceGraphic" in2="BackgroundImageFix" result="shape"/>
<feGaussianBlur stdDeviation="0.111184" result="effect1_foregroundBlur_80_189"/>
</filter>
<filter id="filter6_f_80_189" x="74.9825" y="17.1597" width="7.1112" height="6.33507" filterUnits="userSpaceOnUse" color-interpolation-filters="sRGB">
<feFlood flood-opacity="0" result="BackgroundImageFix"/>
<feBlend mode="normal" in="SourceGraphic" in2="BackgroundImageFix" result="shape"/>
<feGaussianBlur stdDeviation="0.0317057" result="effect1_foregroundBlur_80_189"/>
</filter>
<filter id="filter7_f_80_189" x="56.1795" y="18.0221" width="6.64596" height="5.64388" filterUnits="userSpaceOnUse" color-interpolation-filters="sRGB">
<feFlood flood-opacity="0" result="BackgroundImageFix"/>
<feBlend mode="normal" in="SourceGraphic" in2="BackgroundImageFix" result="shape"/>
<feGaussianBlur stdDeviation="0.0289208" result="effect1_foregroundBlur_80_189"/>
</filter>
<filter id="filter8_f_80_189" x="56.8066" y="25.724" width="2.82827" height="4.13247" filterUnits="userSpaceOnUse" color-interpolation-filters="sRGB">
<feFlood flood-opacity="0" result="BackgroundImageFix"/>
<feBlend mode="normal" in="SourceGraphic" in2="BackgroundImageFix" result="shape"/>
<feGaussianBlur stdDeviation="0.109899" result="effect1_foregroundBlur_80_189"/>
</filter>
<filter id="filter9_f_80_189" x="59.2867" y="40.2514" width="7.09068" height="5.05479" filterUnits="userSpaceOnUse" color-interpolation-filters="sRGB">
<feFlood flood-opacity="0" result="BackgroundImageFix"/>
<feBlend mode="normal" in="SourceGraphic" in2="BackgroundImageFix" result="shape"/>
<feGaussianBlur stdDeviation="0.192591" result="effect1_foregroundBlur_80_189"/>
</filter>
<filter id="filter10_f_80_189" x="53.6948" y="33.2549" width="24.7316" height="10.7012" filterUnits="userSpaceOnUse" color-interpolation-filters="sRGB">
<feFlood flood-opacity="0" result="BackgroundImageFix"/>
<feBlend mode="normal" in="SourceGraphic" in2="BackgroundImageFix" result="shape"/>
<feGaussianBlur stdDeviation="0.162385" result="effect1_foregroundBlur_80_189"/>
</filter>
<filter id="filter11_f_80_189" x="64.1333" y="33.6459" width="6.48924" height="7.58177" filterUnits="userSpaceOnUse" color-interpolation-filters="sRGB">
<feFlood flood-opacity="0" result="BackgroundImageFix"/>
<feBlend mode="normal" in="SourceGraphic" in2="BackgroundImageFix" result="shape"/>
<feGaussianBlur stdDeviation="0.18188" result="effect1_foregroundBlur_80_189"/>
</filter>
<filter id="filter12_f_80_189" x="66.3874" y="31.1183" width="2.67239" height="1.39785" filterUnits="userSpaceOnUse" color-interpolation-filters="sRGB">
<feFlood flood-opacity="0" result="BackgroundImageFix"/>
<feBlend mode="normal" in="SourceGraphic" in2="BackgroundImageFix" result="shape"/>
<feGaussianBlur stdDeviation="0.0235651" result="effect1_foregroundBlur_80_189"/>
</filter>
<filter id="filter13_f_80_189" x="60.2947" y="31.3439" width="1.12942" height="1.19387" filterUnits="userSpaceOnUse" color-interpolation-filters="sRGB">
<feFlood flood-opacity="0" result="BackgroundImageFix"/>
<feBlend mode="normal" in="SourceGraphic" in2="BackgroundImageFix" result="shape"/>
<feGaussianBlur stdDeviation="0.0235651" result="effect1_foregroundBlur_80_189"/>
</filter>
<filter id="filter14_f_80_189" x="77.7853" y="34.8444" width="2.91962" height="3.39216" filterUnits="userSpaceOnUse" color-interpolation-filters="sRGB">
<feFlood flood-opacity="0" result="BackgroundImageFix"/>
<feBlend mode="normal" in="SourceGraphic" in2="BackgroundImageFix" result="shape"/>
<feGaussianBlur stdDeviation="0.073168" result="effect1_foregroundBlur_80_189"/>
</filter>
<filter id="filter15_f_80_189" x="91.1343" y="61.3186" width="13.9658" height="36.7009" filterUnits="userSpaceOnUse" color-interpolation-filters="sRGB">
<feFlood flood-opacity="0" result="BackgroundImageFix"/>
<feBlend mode="normal" in="SourceGraphic" in2="BackgroundImageFix" result="shape"/>
<feGaussianBlur stdDeviation="0.292242" result="effect1_foregroundBlur_80_189"/>
</filter>
<filter id="filter16_f_80_189" x="42.4735" y="55.1866" width="16.8469" height="15.2413" filterUnits="userSpaceOnUse" color-interpolation-filters="sRGB">
<feFlood flood-opacity="0" result="BackgroundImageFix"/>
<feBlend mode="normal" in="SourceGraphic" in2="BackgroundImageFix" result="shape"/>
<feGaussianBlur stdDeviation="0.147995" result="effect1_foregroundBlur_80_189"/>
</filter>
<filter id="filter17_f_80_189" x="66.6775" y="53.8435" width="25.4586" height="17.3242" filterUnits="userSpaceOnUse" color-interpolation-filters="sRGB">
<feFlood flood-opacity="0" result="BackgroundImageFix"/>
<feBlend mode="normal" in="SourceGraphic" in2="BackgroundImageFix" result="shape"/>
<feGaussianBlur stdDeviation="0.243791" result="effect1_foregroundBlur_80_189"/>
</filter>
<filter id="filter18_f_80_189" x="57.1148" y="55.8715" width="10.5477" height="10.8424" filterUnits="userSpaceOnUse" color-interpolation-filters="sRGB">
<feFlood flood-opacity="0" result="BackgroundImageFix"/>
<feBlend mode="normal" in="SourceGraphic" in2="BackgroundImageFix" result="shape"/>
<feGaussianBlur stdDeviation="0.168169" result="effect1_foregroundBlur_80_189"/>
</filter>
<filter id="filter19_f_80_189" x="57.3355" y="70.5191" width="3.17269" height="27.5626" filterUnits="userSpaceOnUse" color-interpolation-filters="sRGB">
<feFlood flood-opacity="0" result="BackgroundImageFix"/>
<feBlend mode="normal" in="SourceGraphic" in2="BackgroundImageFix" result="shape"/>
<feGaussianBlur stdDeviation="0.309774" result="effect1_foregroundBlur_80_189"/>
</filter>
<filter id="filter20_f_80_189" x="84.5847" y="39.7932" width="6.31505" height="6.71788" filterUnits="userSpaceOnUse" color-interpolation-filters="sRGB">
<feFlood flood-opacity="0" result="BackgroundImageFix"/>
<feBlend mode="normal" in="SourceGraphic" in2="BackgroundImageFix" result="shape"/>
<feGaussianBlur stdDeviation="0.193019" result="effect1_foregroundBlur_80_189"/>
</filter>
<filter id="filter21_f_80_189" x="83.4452" y="96.2946" width="34.428" height="36.0014" filterUnits="userSpaceOnUse" color-interpolation-filters="sRGB">
<feFlood flood-opacity="0" result="BackgroundImageFix"/>
<feBlend mode="normal" in="SourceGraphic" in2="BackgroundImageFix" result="shape"/>
<feGaussianBlur stdDeviation="0.479548" result="effect1_foregroundBlur_80_189"/>
</filter>
<filter id="filter22_f_80_189" x="86.6155" y="91.1099" width="40.0991" height="39.2635" filterUnits="userSpaceOnUse" color-interpolation-filters="sRGB">
<feFlood flood-opacity="0" result="BackgroundImageFix"/>
<feBlend mode="normal" in="SourceGraphic" in2="BackgroundImageFix" result="shape"/>
<feGaussianBlur stdDeviation="1.0238" result="effect1_foregroundBlur_80_189"/>
</filter>
<filter id="filter23_f_80_189" x="88.5243" y="88.9006" width="37.5863" height="36.1567" filterUnits="userSpaceOnUse" color-interpolation-filters="sRGB">
<feFlood flood-opacity="0" result="BackgroundImageFix"/>
<feBlend mode="normal" in="SourceGraphic" in2="BackgroundImageFix" result="shape"/>
<feGaussianBlur stdDeviation="0.806721" result="effect1_foregroundBlur_80_189"/>
</filter>
<filter id="filter24_f_80_189" x="89.5301" y="93.4021" width="25.4612" height="4.31415" filterUnits="userSpaceOnUse" color-interpolation-filters="sRGB">
<feFlood flood-opacity="0" result="BackgroundImageFix"/>
<feBlend mode="normal" in="SourceGraphic" in2="BackgroundImageFix" result="shape"/>
<feGaussianBlur stdDeviation="0.102615" result="effect1_foregroundBlur_80_189"/>
</filter>
<filter id="filter25_f_80_189" x="94.7191" y="67.1482" width="6.55207" height="6.47785" filterUnits="userSpaceOnUse" color-interpolation-filters="sRGB">
<feFlood flood-opacity="0" result="BackgroundImageFix"/>
<feBlend mode="normal" in="SourceGraphic" in2="BackgroundImageFix" result="shape"/>
<feGaussianBlur stdDeviation="0.491044" result="effect1_foregroundBlur_80_189"/>
</filter>
<filter id="filter26_f_80_189" x="47.5677" y="50.0758" width="2.45158" height="2.43877" filterUnits="userSpaceOnUse" color-interpolation-filters="sRGB">
<feFlood flood-opacity="0" result="BackgroundImageFix"/>
<feBlend mode="normal" in="SourceGraphic" in2="BackgroundImageFix" result="shape"/>
<feGaussianBlur stdDeviation="0.137066" result="effect1_foregroundBlur_80_189"/>
</filter>
<filter id="filter27_f_80_189" x="93.7737" y="93.6219" width="17.9371" height="15.222" filterUnits="userSpaceOnUse" color-interpolation-filters="sRGB">
<feFlood flood-opacity="0" result="BackgroundImageFix"/>
<feBlend mode="normal" in="SourceGraphic" in2="BackgroundImageFix" result="shape"/>
<feGaussianBlur stdDeviation="0.609264" result="effect1_foregroundBlur_80_189"/>
</filter>
<filter id="filter28_f_80_189" x="94.5197" y="94.4087" width="16.445" height="10.1875" filterUnits="userSpaceOnUse" color-interpolation-filters="sRGB">
<feFlood flood-opacity="0" result="BackgroundImageFix"/>
<feBlend mode="normal" in="SourceGraphic" in2="BackgroundImageFix" result="shape"/>
<feGaussianBlur stdDeviation="0.236245" result="effect1_foregroundBlur_80_189"/>
</filter>
<filter id="filter29_f_80_189" x="95.6897" y="87.9539" width="16.7777" height="8.04264" filterUnits="userSpaceOnUse" color-interpolation-filters="sRGB">
<feFlood flood-opacity="0" result="BackgroundImageFix"/>
<feBlend mode="normal" in="SourceGraphic" in2="BackgroundImageFix" result="shape"/>
<feGaussianBlur stdDeviation="0.219584" result="effect1_foregroundBlur_80_189"/>
</filter>
<filter id="filter30_f_80_189" x="95.6897" y="87.9539" width="16.7777" height="8.04264" filterUnits="userSpaceOnUse" color-interpolation-filters="sRGB">
<feFlood flood-opacity="0" result="BackgroundImageFix"/>
<feBlend mode="normal" in="SourceGraphic" in2="BackgroundImageFix" result="shape"/>
<feGaussianBlur stdDeviation="0.219584" result="effect1_foregroundBlur_80_189"/>
</filter>
<filter id="filter31_f_80_189" x="32.7435" y="64.1122" width="13.2122" height="28.8926" filterUnits="userSpaceOnUse" color-interpolation-filters="sRGB">
<feFlood flood-opacity="0" result="BackgroundImageFix"/>
<feBlend mode="normal" in="SourceGraphic" in2="BackgroundImageFix" result="shape"/>
<feGaussianBlur stdDeviation="0.242506" result="effect1_foregroundBlur_80_189"/>
</filter>
<filter id="filter32_f_80_189" x="12.6488" y="89.7094" width="43.2375" height="41.4225" filterUnits="userSpaceOnUse" color-interpolation-filters="sRGB">
<feFlood flood-opacity="0" result="BackgroundImageFix"/>
<feBlend mode="normal" in="SourceGraphic" in2="BackgroundImageFix" result="shape"/>
<feGaussianBlur stdDeviation="0.840631" result="effect1_foregroundBlur_80_189"/>
</filter>
<filter id="filter33_f_80_189" x="14.6752" y="88.6871" width="37.3917" height="38.1854" filterUnits="userSpaceOnUse" color-interpolation-filters="sRGB">
<feFlood flood-opacity="0" result="BackgroundImageFix"/>
<feBlend mode="normal" in="SourceGraphic" in2="BackgroundImageFix" result="shape"/>
<feGaussianBlur stdDeviation="0.517366" result="effect1_foregroundBlur_80_189"/>
</filter>
<filter id="filter34_f_80_189" x="39.4938" y="96.8033" width="12.2975" height="21.2483" filterUnits="userSpaceOnUse" color-interpolation-filters="sRGB">
<feFlood flood-opacity="0" result="BackgroundImageFix"/>
<feBlend mode="normal" in="SourceGraphic" in2="BackgroundImageFix" result="shape"/>
<feGaussianBlur stdDeviation="0.0792644" result="effect1_foregroundBlur_80_189"/>
</filter>
<radialGradient id="paint0_radial_80_189" cx="0" cy="0" r="1" gradientUnits="userSpaceOnUse" gradientTransform="translate(1758.46 2470.96) rotate(-2.32153) scale(113.291 267.137)">
<stop stop-color="#FEFEFC"/>
<stop offset="0.757" stop-color="#FEFEFC"/>
<stop offset="1" stop-color="#D4D4D4"/>
</radialGradient>
<radialGradient id="paint1_radial_80_189" cx="0" cy="0" r="1" gradientUnits="userSpaceOnUse" gradientTransform="translate(3156.49 2587.89) rotate(-1.7435) scale(202.837 282.362)">
<stop stop-color="#FEFEFC"/>
<stop offset="0.757" stop-color="#FEFEFC"/>
<stop offset="1" stop-color="#D4D4D4"/>
</radialGradient>
<radialGradient id="paint2_radial_80_189" cx="0" cy="0" r="1" gradientUnits="userSpaceOnUse" gradientTransform="translate(3367.34 -853.029) rotate(-34.994) scale(183.506 120.26)">
<stop stop-color="#020204"/>
<stop offset="0.734" stop-color="#020204"/>
<stop offset="1" stop-color="#5C5C5C"/>
</radialGradient>
<linearGradient id="paint3_linear_80_189" x1="1036.51" y1="425.842" x2="1056.56" y2="450.856" gradientUnits="userSpaceOnUse">
<stop stop-color="#949494" stop-opacity="0.392"/>
<stop offset="0.5" stop-color="#949494"/>
<stop offset="1" stop-color="#949494" stop-opacity="0.392"/>
</linearGradient>
<linearGradient id="paint4_linear_80_189" x1="1997.35" y1="1834.14" x2="2364.99" y2="2147.66" gradientUnits="userSpaceOnUse">
<stop stop-color="#747474"/>
<stop offset="0.125" stop-color="#8C8C8C"/>
<stop offset="0.25" stop-color="#A4A4A4"/>
<stop offset="0.5" stop-color="#D4D4D4"/>
<stop offset="0.619" stop-color="#D4D4D4"/>
<stop offset="1" stop-color="#7C7C7C"/>
</linearGradient>
<linearGradient id="paint5_linear_80_189" x1="183.378" y1="672.579" x2="271.714" y2="766.403" gradientUnits="userSpaceOnUse">
<stop stop-color="#646464" stop-opacity="0"/>
<stop offset="0.306" stop-color="#646464" stop-opacity="0.583"/>
<stop offset="0.47" stop-color="#646464"/>
<stop offset="0.728" stop-color="#646464" stop-opacity="0.257"/>
<stop offset="1" stop-color="#646464" stop-opacity="0"/>
</linearGradient>
<linearGradient id="paint6_linear_80_189" x1="-112.057" y1="607.745" x2="-38.5394" y2="691.377" gradientUnits="userSpaceOnUse">
<stop stop-color="#646464" stop-opacity="0"/>
<stop offset="0.306" stop-color="#646464" stop-opacity="0.583"/>
<stop offset="0.47" stop-color="#646464"/>
<stop offset="0.728" stop-color="#646464" stop-opacity="0.257"/>
<stop offset="1" stop-color="#646464" stop-opacity="0"/>
</linearGradient>
<linearGradient id="paint7_linear_80_189" x1="448.914" y1="513.642" x2="473.931" y2="542.578" gradientUnits="userSpaceOnUse">
<stop stop-color="#757574" stop-opacity="0"/>
<stop offset="0.263" stop-color="#757574"/>
<stop offset="0.5" stop-color="#757574"/>
<stop offset="1" stop-color="#757574" stop-opacity="0"/>
</linearGradient>
<radialGradient id="paint8_radial_80_189" cx="0" cy="0" r="1" gradientUnits="userSpaceOnUse" gradientTransform="translate(8340.94 -1296.47) rotate(-21.6812) scale(870.983 294.566)">
<stop stop-color="#D2940A"/>
<stop offset="0.751" stop-color="#D89C08"/>
<stop offset="0.866" stop-color="#B67E07"/>
<stop offset="1" stop-color="#946106"/>
</radialGradient>
<linearGradient id="paint9_linear_80_189" x1="1339.43" y1="2140.59" x2="2889.8" y2="2115.61" gradientUnits="userSpaceOnUse">
<stop stop-color="#AD780A"/>
<stop offset="0.12" stop-color="#D89E08"/>
<stop offset="0.255" stop-color="#EDB80B"/>
<stop offset="0.392" stop-color="#EBC80D"/>
<stop offset="0.527" stop-color="#F5D838"/>
<stop offset="0.769" stop-color="#F6D811"/>
<stop offset="1" stop-color="#F5CD31"/>
</linearGradient>
<radialGradient id="paint10_radial_80_189" cx="0" cy="0" r="1" gradientUnits="userSpaceOnUse" gradientTransform="translate(266.719 143.286) scale(8.32887 2.45611)">
<stop stop-color="#3A2903"/>
<stop offset="0.555" stop-color="#735208"/>
<stop offset="1" stop-color="#AC8C04"/>
</radialGradient>
<radialGradient id="paint11_radial_80_189" cx="0" cy="0" r="1" gradientUnits="userSpaceOnUse" gradientTransform="translate(125.697 205.655) scale(1.58922 1.81468)">
<stop stop-color="#3A2903"/>
<stop offset="0.555" stop-color="#735208"/>
<stop offset="1" stop-color="#AC8C04"/>
</radialGradient>
<linearGradient id="paint12_linear_80_189" x1="653.747" y1="521.667" x2="655.282" y2="529.933" gradientUnits="userSpaceOnUse">
<stop stop-color="#F5CE2D"/>
<stop offset="1" stop-color="#D79B08"/>
</linearGradient>
<radialGradient id="paint13_radial_80_189" cx="0" cy="0" r="1" gradientUnits="userSpaceOnUse" gradientTransform="translate(1811.99 88.5414) rotate(-9.01144) scale(230.843 95.5581)">
<stop stop-color="#C8C8C8"/>
<stop offset="1" stop-color="#797978"/>
</radialGradient>
<radialGradient id="paint14_radial_80_189" cx="0" cy="0" r="1" gradientUnits="userSpaceOnUse" gradientTransform="translate(-3622.73 2522.82) rotate(180) scale(310.968 306.305)">
<stop/>
<stop offset="1" stop-opacity="0.25"/>
</radialGradient>
<radialGradient id="paint15_radial_80_189" cx="0" cy="0" r="1" gradientUnits="userSpaceOnUse" gradientTransform="translate(7578.09 3002.59) scale(670.635 341.843)">
<stop/>
<stop offset="1" stop-opacity="0.25"/>
</radialGradient>
<radialGradient id="paint16_radial_80_189" cx="0" cy="0" r="1" gradientUnits="userSpaceOnUse" gradientTransform="translate(2647.1 2499.7) scale(107.099 117.926)">
<stop/>
<stop offset="1" stop-opacity="0.25"/>
</radialGradient>
<linearGradient id="paint17_linear_80_189" x1="1003.99" y1="11136.8" x2="1135.82" y2="12075.4" gradientUnits="userSpaceOnUse">
<stop/>
<stop offset="1" stop-opacity="0"/>
</linearGradient>
<linearGradient id="paint18_linear_80_189" x1="17489.9" y1="14624.6" x2="19365" y2="11564.4" gradientUnits="userSpaceOnUse">
<stop stop-color="#3E2A06"/>
<stop offset="1" stop-color="#AD780A"/>
</linearGradient>
<linearGradient id="paint19_linear_80_189" x1="1221.14" y1="1224.06" x2="1220.27" y2="1274.35" gradientUnits="userSpaceOnUse">
<stop stop-color="#F3CD0C"/>
<stop offset="1" stop-color="#F3CD0C" stop-opacity="0"/>
</linearGradient>
<radialGradient id="paint20_radial_80_189" cx="0" cy="0" r="1" gradientUnits="userSpaceOnUse" gradientTransform="translate(5796.04 7271.42) rotate(14.4721) scale(352.79 306.933)">
<stop stop-color="#110800"/>
<stop offset="0.591" stop-color="#A65A00" stop-opacity="0.8"/>
<stop offset="1" stop-color="#FF921E" stop-opacity="0"/>
</radialGradient>
<radialGradient id="paint21_radial_80_189" cx="0" cy="0" r="1" gradientUnits="userSpaceOnUse" gradientTransform="translate(5796.04 5283.01) rotate(10.569) scale(347.492 225.273)">
<stop stop-color="#110800"/>
<stop offset="0.591" stop-color="#A65A00" stop-opacity="0.8"/>
<stop offset="1" stop-color="#FF921E" stop-opacity="0"/>
</radialGradient>
<radialGradient id="paint22_radial_80_189" cx="0" cy="0" r="1" gradientUnits="userSpaceOnUse" gradientTransform="translate(2159.89 1303.61) rotate(22.7464) scale(127.558 26.8728)">
<stop stop-color="#7C7C7C"/>
<stop offset="1" stop-color="#7C7C7C" stop-opacity="0.33"/>
</radialGradient>
<linearGradient id="paint23_linear_80_189" x1="5796.06" y1="2089.84" x2="5843.44" y2="2085.46" gradientUnits="userSpaceOnUse">
<stop stop-color="#7C7C7C"/>
<stop offset="1" stop-color="#7C7C7C" stop-opacity="0.33"/>
</linearGradient>
<linearGradient id="paint24_linear_80_189" x1="5354.74" y1="12554.4" x2="7281.05" y2="15946.5" gradientUnits="userSpaceOnUse">
<stop stop-color="#B98309"/>
<stop offset="1" stop-color="#382605"/>
</linearGradient>
<linearGradient id="paint25_linear_80_189" x1="2088.78" y1="6841.5" x2="2467.29" y2="7249.31" gradientUnits="userSpaceOnUse">
<stop stop-color="#EBC40C"/>
<stop offset="1" stop-color="#EBC40C" stop-opacity="0"/>
</linearGradient>
<clipPath id="clip0_80_189">
<rect width="136" height="131" fill="white" transform="translate(0 0.5)"/>
</clipPath>
</defs>
</svg>
