<svg width="98" height="104" viewBox="0 0 98 104" fill="none" xmlns="http://www.w3.org/2000/svg">
<g id="CSS logo" clip-path="url(#clip0_80_176)">
<path id="Vector" d="M8.20592 92.71L0 0.672791L98 0.857747L89.3231 92.71L49.3699 103.327L8.20592 92.71Z" fill="#1B73BA"/>
<path id="Vector_2" d="M49.3701 94.4384V9.43823L89.7272 9.56154L82.5305 85.6113L49.3701 94.4384Z" fill="#1C88C7"/>
<path id="Vector_3" d="M79.7053 20.3029H17.623L19.3049 31.4133H48.7649L19.7759 42.8335L21.4569 53.574H64.1683L62.6209 68.5736L48.1595 71.1666L35.0441 68.0804L34.0349 59.5615H21.9951L23.6089 77.2781L49.4375 83.8829L74.1904 76.6609L77.3517 42.0305H51.1857L79.7045 31.1667L79.7053 20.3029Z" fill="white"/>
</g>
<defs>
<clipPath id="clip0_80_176">
<rect width="98" height="103" fill="white" transform="translate(0 0.5)"/>
</clipPath>
</defs>
</svg>
