<svg width="96" height="96" viewBox="0 0 96 96" fill="none" xmlns="http://www.w3.org/2000/svg">
<g id="docker logo">
<path id="Vector" d="M19.083 67.0848C16.3779 67.0848 13.9188 64.8716 13.9188 62.1665C13.9188 59.4615 16.132 57.2483 19.083 57.2483C22.0339 57.2483 24.2472 59.4615 24.2472 62.1665C24.2472 64.8716 21.788 67.0848 19.083 67.0848ZM82.5289 40.2802C82.0371 36.3455 79.5779 33.1486 76.381 30.6895L75.1515 29.7058L74.1678 30.9354C72.2005 33.1486 71.4627 37.0833 71.7086 40.0342C71.9546 42.2475 72.6923 44.4607 73.9219 46.1821C72.9382 46.6739 71.7086 47.1658 70.725 47.6576C68.5118 48.3953 66.2985 48.6413 64.0853 48.6413H0.393463L0.147549 50.1167C-0.34428 54.7891 0.393463 59.7074 2.36078 64.1339L3.34444 65.8553V66.1012C9.24638 75.9378 19.8207 80.3642 31.3787 80.3642C53.511 80.3642 71.7086 70.7736 80.3157 50.1167C85.9717 50.3627 91.6277 48.8872 94.3328 43.477L95.0705 42.2475L93.841 41.5097C90.6441 39.5424 86.2176 39.2965 82.5289 40.2802ZM50.8059 36.3455H41.2153V45.9362H50.8059V36.3455ZM50.8059 24.2957H41.2153V33.8864H50.8059V24.2957ZM50.8059 12H41.2153V21.5907H50.8059V12ZM62.6098 36.3455H53.0192V45.9362H62.6098V36.3455ZM26.9522 36.3455H17.3616V45.9362H26.9522V36.3455ZM39.002 36.3455H29.4114V45.9362H39.002V36.3455ZM15.1483 36.3455H5.55767V45.9362H15.1483V36.3455ZM39.002 24.2957H29.4114V33.8864H39.002V24.2957ZM26.9522 24.2957H17.3616V33.8864H26.9522V24.2957Z" fill="#0087C9"/>
</g>
</svg>
