<svg width="129" height="130" viewBox="0 0 129 130" fill="none" xmlns="http://www.w3.org/2000/svg">
<g id="file_type_reactjs logo">
<path id="Vector" d="M64.5 74.9733C70.066 74.9733 74.5781 70.4611 74.5781 64.8951C74.5781 59.3291 70.066 54.817 64.5 54.817C58.934 54.817 54.4219 59.3291 54.4219 64.8951C54.4219 70.4611 58.934 74.9733 64.5 74.9733Z" fill="#00D8FF"/>
<path id="Vector_2" d="M64.5 88.0023C52.3866 88.2953 40.3036 86.6624 28.7025 83.1648C23.3434 81.4659 18.3451 78.7898 13.9602 75.2716C12.287 74.0697 10.8935 72.52 9.87552 70.7289C8.85751 68.9379 8.23903 66.9477 8.0625 64.8951C8.0625 58.2315 15.3832 51.7009 27.6463 47.4277C39.5576 43.6414 52.0028 41.8063 64.5 41.9936C76.8304 41.8213 89.1089 43.6232 100.87 47.331C106.031 48.9764 110.86 51.5232 115.132 54.8533C116.777 55.9991 118.15 57.4926 119.153 59.228C120.156 60.9634 120.765 62.8981 120.938 64.8951C120.938 71.8208 112.754 78.8392 99.5719 83.201C88.1954 86.5848 76.3673 88.204 64.5 88.0023ZM64.5 46.815C52.5438 46.6552 40.6383 48.3997 29.2306 51.983C17.9431 55.9216 12.8839 61.3073 12.8839 64.883C12.8839 68.624 18.322 74.5056 30.2626 78.5893C41.3609 81.9185 52.9166 83.4683 64.5 83.1809C75.8536 83.3839 87.1714 81.8477 98.0602 78.6256C110.456 74.5177 116.1 68.6281 116.1 64.8951C115.897 63.6141 115.43 62.3892 114.729 61.2977C114.028 60.2063 113.109 59.272 112.028 58.554C108.206 55.5997 103.892 53.3425 99.2857 51.8863C88.0345 48.3539 76.2913 46.6419 64.5 46.815Z" fill="#00D8FF"/>
<path id="Vector_3" d="M41.6029 115.161C39.7223 115.204 37.8639 114.748 36.2171 113.839C30.4444 110.509 28.4449 100.906 30.8677 88.1474C33.539 75.9372 38.1675 64.2393 44.5739 53.5069C50.5834 42.7399 58.2769 33.0036 67.3626 24.6673C71.3662 21.0179 75.9849 18.1067 81.0043 16.0687C82.8198 15.2178 84.8003 14.7768 86.8053 14.7768C88.8103 14.7768 90.7907 15.2178 92.6063 16.0687C98.6088 19.5275 100.596 30.1216 97.7945 43.719C95.0407 55.2668 90.5324 66.324 84.4269 76.5052C78.6288 87.1451 71.1776 96.7966 62.3517 105.099C58.2027 108.891 53.3876 111.883 48.1496 113.923C46.0527 114.702 43.8393 115.12 41.6029 115.161ZM48.7503 55.9015C42.6393 66.1784 38.2032 77.3627 35.6084 89.0343C33.3791 100.785 35.5197 107.852 38.6319 109.65C41.8569 111.517 49.6855 109.747 59.1912 101.443C67.6166 93.4886 74.7286 84.25 80.2626 74.0703C86.1117 64.3369 90.4362 53.7655 93.086 42.7233C95.7224 29.9241 93.4448 22.0873 90.2117 20.2249C89 19.7606 87.7051 19.5528 86.4089 19.6145C85.1127 19.6763 83.8434 20.0063 82.6813 20.5837C78.2134 22.4274 74.1058 25.0448 70.5473 28.3156C61.8666 36.3007 54.5178 45.6215 48.7785 55.9257L48.7503 55.9015Z" fill="#00D8FF"/>
<path id="Vector_4" d="M87.3851 115.213C81.9227 115.213 74.9849 111.908 67.7609 105.695C58.5161 97.2833 50.6925 87.4314 44.5934 76.5213C38.2672 65.9367 33.6754 54.4081 30.9919 42.3726C29.8281 37.0775 29.6125 31.618 30.355 26.2476C30.5266 24.2554 31.1333 22.3251 32.1321 20.5928C33.1309 18.8605 34.4976 17.3685 36.1358 16.2219C42.1303 12.7509 52.3011 16.3186 62.6816 25.534C71.3108 33.686 78.6388 43.1131 84.41 53.4867C90.7322 63.8242 95.3722 75.1004 98.1566 86.8937C99.3704 92.3831 99.5577 98.0497 98.7088 103.607C98.5069 105.657 97.8641 107.638 96.8245 109.416C95.785 111.194 94.3733 112.726 92.6862 113.907C91.0663 114.805 89.2367 115.256 87.3851 115.213ZM48.7657 74.0945C54.6168 84.521 62.0901 93.9498 70.9053 102.027C79.9716 109.827 87.1633 111.504 90.2553 109.686C93.4803 107.812 95.8588 100.161 93.4078 87.7806C90.7224 76.521 86.272 65.7575 80.2215 55.8894C74.7142 45.9609 67.7196 36.9339 59.4808 29.1219C49.709 20.4466 41.7836 18.5076 38.5545 20.3781C37.5481 21.1959 36.7222 22.2136 36.129 23.3668C35.5357 24.52 35.188 25.7836 35.1078 27.078C34.4669 31.8675 34.6757 36.7325 35.7246 41.4494C38.3058 52.9592 42.7097 63.9826 48.7697 74.1025L48.7657 74.0945Z" fill="#00D8FF"/>
</g>
</svg>
