<svg width="121" height="126" viewBox="0 0 121 126" fill="none" xmlns="http://www.w3.org/2000/svg">
<g id="Laravel logo" clip-path="url(#clip0_80_290)">
<path id="Vector" d="M120.717 29.0194C120.761 29.185 120.784 29.3558 120.785 29.5273V56.195C120.785 56.5373 120.694 56.8735 120.523 57.1697C120.351 57.4658 120.104 57.7115 119.807 57.8818L97.4058 70.7684V96.3107C97.4058 97.0058 97.036 97.6475 96.4328 97.9975L49.6723 124.894C49.5652 124.954 49.4485 124.993 49.3317 125.035C49.2879 125.049 49.2466 125.076 49.2003 125.088C48.8735 125.174 48.5299 125.174 48.203 125.088C48.1495 125.073 48.1008 125.044 48.0498 125.025C47.9427 124.986 47.8308 124.952 47.7287 124.894L0.977877 97.9975C0.680883 97.827 0.434111 97.5813 0.262432 97.2852C0.0907538 96.9891 0.000235321 96.6529 0 96.3107L0 16.3077C0 16.1327 0.0243253 15.9626 0.0681108 15.7973C0.082706 15.7414 0.116761 15.6904 0.136222 15.6345C0.17271 15.5324 0.206765 15.4279 0.260281 15.3331C0.296769 15.2699 0.350284 15.2189 0.39407 15.1605C0.450018 15.0828 0.501101 15.0026 0.566779 14.9345C0.622728 14.8786 0.695703 14.8373 0.758949 14.7887C0.829493 14.7303 0.892738 14.6671 0.973012 14.621L24.3521 1.1729C24.648 1.00272 24.9836 0.913147 25.3251 0.913147C25.6666 0.913147 26.0021 1.00272 26.2981 1.1729L49.6747 14.621H49.6796C49.7574 14.6696 49.8231 14.7303 49.8936 14.7862C49.9569 14.8348 50.0274 14.8786 50.0834 14.9321C50.1515 15.0026 50.2001 15.0828 50.2585 15.1605C50.2998 15.2189 50.3558 15.2699 50.3898 15.3331C50.4458 15.4303 50.4774 15.5324 50.5163 15.6345C50.5358 15.6904 50.5699 15.7414 50.5844 15.7998C50.6292 15.9654 50.6521 16.1362 50.6526 16.3077V66.2768L70.1323 55.0697V29.5249C70.1323 29.3548 70.1566 29.1822 70.2004 29.0194C70.2174 28.961 70.249 28.91 70.2685 28.8541C70.3074 28.752 70.3415 28.6475 70.395 28.5527C70.4315 28.4895 70.485 28.4385 70.5263 28.3801C70.5847 28.3024 70.6334 28.2221 70.7015 28.1541C70.7574 28.0982 70.828 28.0569 70.8912 28.0083C70.9642 27.9499 71.0274 27.8867 71.1053 27.8406L94.4867 14.3925C94.7827 14.2221 95.1182 14.1324 95.4598 14.1324C95.8013 14.1324 96.1369 14.2221 96.4328 14.3925L119.809 27.8406C119.892 27.8892 119.955 27.9499 120.028 28.0058C120.089 28.0544 120.16 28.0982 120.216 28.1517C120.284 28.2221 120.332 28.3024 120.391 28.3801C120.435 28.4385 120.488 28.4895 120.522 28.5527C120.578 28.6475 120.61 28.752 120.649 28.8541C120.67 28.91 120.702 28.961 120.717 29.0194ZM116.888 55.0697V32.8936L108.707 37.5991L97.4058 44.1007V66.2768L116.89 55.0697H116.888ZM93.5113 95.1854V72.9947L82.3946 79.3384L50.6501 97.4409V119.841L93.5113 95.1854ZM3.89691 19.674V95.1854L46.7532 119.838V97.4433L24.3642 84.7828L24.3569 84.7779L24.3472 84.773C24.2718 84.7293 24.2085 84.6661 24.138 84.6126C24.0772 84.564 24.0066 84.5251 23.9531 84.4717L23.9483 84.4644C23.885 84.4036 23.8412 84.3283 23.7877 84.2602C23.7391 84.1946 23.6807 84.1387 23.6418 84.0706L23.6393 84.0633C23.5955 83.9904 23.5688 83.9029 23.5372 83.8203C23.5055 83.7474 23.4642 83.6793 23.4447 83.6015C23.4204 83.5092 23.4155 83.4095 23.4058 83.3147C23.3961 83.2418 23.3766 83.1689 23.3766 83.096V30.8811L12.0775 24.3771L3.89691 19.674ZM25.3275 5.10548L5.85023 16.3077L25.3226 27.51L44.7975 16.3053L25.3226 5.10548H25.3275ZM35.4566 75.0169L46.7556 68.5177V19.674L38.5751 24.3795L27.2735 30.8811V79.7248L35.4566 75.0169ZM95.4598 18.3251L75.9849 29.5273L95.4598 40.7296L114.932 29.5249L95.4598 18.3251ZM93.5113 44.1007L82.2098 37.5991L74.0292 32.8936V55.0697L85.3283 61.5689L93.5113 66.2768V44.1007ZM48.6992 94.0746L77.2644 77.7804L91.5434 69.6382L72.0831 58.4432L49.6771 71.3323L29.256 83.079L48.6992 94.0746Z" fill="#FF2D20"/>
</g>
<defs>
<clipPath id="clip0_80_290">
<rect width="121" height="125" fill="white" transform="translate(0 0.5)"/>
</clipPath>
</defs>
</svg>
