<svg width="109" height="110" viewBox="0 0 109 110" fill="none" xmlns="http://www.w3.org/2000/svg">
<g id="MySQL logo" clip-path="url(#clip0_80_185)">
<path id="Vector" fill-rule="evenodd" clip-rule="evenodd" d="M100.402 85.4051C94.4737 85.24 89.8746 85.8476 86.0199 87.4691C84.91 87.915 83.1289 87.915 82.9826 89.3119C83.5758 89.8981 83.6472 90.8575 84.1673 91.6699C85.0562 93.1444 86.6147 95.1308 88.022 96.1612L92.7657 99.5511C95.6567 101.318 98.9183 102.35 101.735 104.118C103.366 105.15 104.996 106.476 106.628 107.583C107.459 108.172 107.962 109.132 109 109.498V109.275C108.482 108.615 108.332 107.657 107.816 106.917L105.589 104.782C103.441 101.909 100.771 99.4025 97.8799 97.3418C95.5072 95.7203 90.3199 93.511 89.3562 90.7864L89.21 90.6213C90.8383 90.4562 92.7657 89.8832 94.3242 89.4407C96.8464 88.7802 99.1426 88.9255 101.735 88.2634L105.295 87.2314V86.5709C103.961 85.2449 102.997 83.4765 101.59 82.2249C97.8101 78.9835 93.6563 75.8148 89.3562 73.163C87.0583 71.6901 84.0925 70.7307 81.6468 69.4807C80.7545 69.0382 79.2741 68.8169 78.7557 68.0805C77.4182 66.4623 76.6788 64.324 75.7152 62.4069L69.6373 49.5885C68.3031 46.7153 67.4856 43.8422 65.8574 41.1903C58.221 28.6658 49.9167 21.0784 37.1662 13.6364C34.4247 12.0892 31.1631 11.4237 27.6955 10.6147L22.136 10.3174C20.9481 9.80225 19.7634 8.40201 18.725 7.73822C14.4997 5.08636 3.60179 -0.659897 0.486432 6.91261C-1.5157 11.7012 3.45224 16.4154 5.13869 18.8476C6.40144 20.5418 8.02973 22.4572 8.92197 24.3726C9.42043 25.6243 9.58659 26.9518 10.1066 28.2778C11.2913 31.5191 12.4045 35.1303 13.9614 38.1521C14.7921 39.6993 15.6644 41.3224 16.7029 42.721C17.2961 43.5466 18.3345 43.9 18.5555 45.2259C17.517 46.7005 17.4456 48.9082 16.8524 50.7526C14.1824 59.078 15.2208 69.3916 19.0008 75.5209C20.1888 77.362 22.9884 81.4158 26.7867 79.8669C30.123 78.541 29.3786 74.3419 30.3423 70.6581C30.5666 69.7747 30.4171 69.1852 30.8607 68.594V68.7591L33.9013 74.8736C36.1992 78.4832 40.2035 82.2414 43.5381 84.7479C45.316 86.0739 46.7249 88.3592 48.948 89.1683V88.9453H48.8018C48.3565 88.2848 47.6886 87.9876 47.0954 87.4724C45.7612 86.1465 44.2792 84.525 43.2407 83.0521C40.1287 78.9274 37.3872 74.3584 34.9397 69.6442C33.7518 67.3606 32.7133 64.8557 31.7529 62.572C31.3043 61.687 31.3043 60.3594 30.565 59.9202C29.4517 61.5384 27.8234 62.9419 27.0043 64.93C25.5953 68.097 25.4491 72.0021 24.9307 76.0542C24.6317 76.1285 24.7646 76.0542 24.6317 76.2194C22.2623 75.6315 21.4449 73.1976 20.556 71.1369C18.3328 65.9058 17.9606 57.5077 19.888 51.4659C20.4064 49.9187 22.6329 45.0558 21.7439 43.583C21.2953 42.1827 19.8166 41.3736 18.9991 40.2673C18.0354 38.8671 17.0003 37.1003 16.3324 35.5531C14.5545 31.425 13.6656 26.8594 11.7366 22.733C10.8444 20.8176 9.28918 18.8278 8.02808 17.061C6.61911 15.0713 5.06558 13.6711 3.95236 11.3148C3.58184 10.4892 3.06345 9.17809 3.65661 8.29303C3.80282 7.70355 4.1019 7.46742 4.69174 7.33532C5.65542 6.50971 8.40025 7.55659 9.36393 7.99581C12.1054 9.10213 14.4033 10.1325 16.7012 11.678C17.7397 12.4145 18.8529 13.8147 20.1871 14.1846H21.7456C24.1182 14.6998 26.785 14.3497 29.0065 15.0102C32.936 16.2651 36.4933 18.1046 39.6834 20.096C49.3933 26.2104 57.4019 34.9041 62.8118 45.2936C63.7007 46.9878 64.0712 48.535 64.8887 50.3034C66.4472 53.9147 68.3745 57.5969 69.9281 61.1355C71.4866 64.5981 72.9687 68.1366 75.1918 71.0098C76.305 72.557 80.7512 73.3661 82.7517 74.1768C84.2354 74.8373 86.5317 75.4317 87.8692 76.2408C90.3881 77.788 92.9086 79.5565 95.2796 81.2506C96.4642 82.1324 100.173 83.9752 100.394 85.4447L100.402 85.4051ZM24.8028 21.3839C23.7786 21.3749 22.7575 21.4987 21.7655 21.7521V21.9173H21.9117C22.5049 23.0962 23.5434 23.907 24.2844 24.939L25.9908 28.4759L26.137 28.3108C27.1754 27.5744 27.6955 26.3954 27.6955 24.6286C27.2502 24.1134 27.1771 23.5966 26.8066 23.0814C26.3613 22.3449 25.3976 21.9751 24.8028 21.3872V21.3839Z" fill="#00678C"/>
</g>
<defs>
<clipPath id="clip0_80_185">
<rect width="109" height="109" fill="white" transform="translate(0 0.5)"/>
</clipPath>
</defs>
</svg>
