<svg width="118" height="94" viewBox="0 0 118 94" fill="none" xmlns="http://www.w3.org/2000/svg">
<g id="php2 logo">
<path id="Vector" d="M58.9996 90.5087C90.3113 90.5087 115.694 71.0292 115.694 47C115.694 22.9708 90.3113 3.49127 58.9996 3.49127C27.6879 3.49127 2.30469 22.9708 2.30469 47C2.30469 71.0292 27.6879 90.5087 58.9996 90.5087Z" fill="#6181B6"/>
<g id="Group">
<path id="Vector_2" d="M70.4792 61.0613L73.2964 39.1449C73.9367 34.1994 73.403 30.5146 71.7174 28.1867C70.0952 25.924 67.3431 24.8248 63.2885 24.8248H58.4245L59.8107 13.9639C59.8539 13.5437 59.7904 13.1234 59.6196 12.8006C59.4487 12.4777 59.1933 12.283 58.9151 12.283H52.1938C51.7455 12.283 51.3827 12.7685 51.2973 13.4143L48.31 36.6875C48.0326 34.0687 47.3712 31.8061 46.3047 29.9637C44.3417 26.5377 41.2048 24.8248 37.0436 24.8248H24.0062C23.5579 24.8248 23.1951 25.3103 23.1097 25.9561L17.0498 73.0522C17.0075 73.4737 17.0709 73.8939 17.2418 74.2168C17.4126 74.5397 17.6681 74.7344 17.9463 74.7344H24.7318C25.1801 74.7344 25.5429 74.2476 25.6283 73.6031L27.1008 62.1913H32.1365C34.782 62.1913 37.0013 61.7711 38.7512 60.8986C40.5222 60.0248 42.1647 58.5386 43.5949 56.5027C44.768 54.8859 45.7287 53.0768 46.4544 51.105L45.2382 60.5116C45.1951 60.9306 45.2593 61.3521 45.4302 61.6738C45.601 61.9979 45.8573 62.1913 46.1347 62.1913H52.856C53.3042 62.1913 53.6671 61.7058 53.7525 61.06L57.0602 35.2013H61.6696C63.6318 35.2013 64.2086 35.783 64.3583 36.0418C64.508 36.2685 64.8066 37.109 64.4649 39.6625L61.8397 60.5437C61.7965 60.9651 61.8608 61.3841 62.0317 61.707C62.2025 62.0299 62.4579 62.2246 62.7353 62.2246H69.564C70.0106 62.1926 70.3938 61.7403 70.4792 61.0613ZM39.3255 42.959C38.8993 46.2556 38.1093 48.5823 36.9566 49.9404C35.7835 51.2985 33.9262 51.9763 31.4092 51.9763H28.4L30.577 35.0386H34.4599C37.3194 35.0386 38.4713 35.9764 38.9196 36.7516C39.5606 37.8201 39.7103 39.9533 39.3255 42.959Z" fill="white"/>
<path id="Vector_3" d="M99.2213 29.9649C97.2583 26.5389 94.1213 24.8259 89.9602 24.8259H76.9236C76.4753 24.8259 76.1125 25.3115 76.0271 25.9572L69.9875 73.0866C69.9444 73.5056 70.0095 73.9271 70.1795 74.2488C70.3503 74.5729 70.6066 74.7664 70.8832 74.7664H77.6696C78.1178 74.7664 78.4798 74.282 78.5661 73.635L80.0385 62.2246H85.0742C87.7198 62.2246 89.9391 61.8043 91.6889 60.9306C93.4608 60.0593 95.1033 58.5718 96.5326 56.5359C97.7277 54.855 98.7307 52.9806 99.4776 50.9435C100.224 48.9076 100.757 46.645 101.078 44.2197C101.825 38.207 101.206 33.4241 99.2213 29.9649ZM92.2015 42.959C91.776 46.2556 90.9861 48.5823 89.8341 49.9403C88.6602 51.2984 86.8037 51.9762 84.2859 51.9762H81.2775L83.4537 35.0386H87.3374C90.1969 35.0386 91.3489 35.9764 91.7963 36.7515C92.4577 37.82 92.5854 39.9532 92.2015 42.959Z" fill="white"/>
</g>
</g>
</svg>
