<svg width="94" height="106" viewBox="0 0 94 106" fill="none" xmlns="http://www.w3.org/2000/svg">
<path d="M0.674137 3.97592L7.55375 91.1578C7.65703 92.467 8.55162 93.5834 9.81537 93.9803L46.016 105.349C46.6562 105.55 47.3435 105.55 47.9837 105.349L84.1843 93.9803C85.4481 93.5834 86.3427 92.467 86.446 91.1578L93.3256 3.97592C93.4735 2.10155 91.9781 0.5 90.0803 0.5H3.91972C2.02188 0.5 0.526422 2.10155 0.674137 3.97592ZM75.6833 31.0255H30.8475L32.2007 43.3855H74.7081L71.9274 78.6218L47 86.4504L22.0725 78.6218L20.6198 60.2129H33.7037V69.2428L47.3496 72.8706L60.914 69.2428L61.9663 54.8517H20.1967L17.4235 19.7078H76.5762L75.6833 31.0255Z" fill="#FC490B"/>
</svg>
